<?xml version="1.0" encoding="UTF-8"?>
<svg version="1.1" xmlns="http://www.w3.org/2000/svg" width="1024" height="1024">
<path d="M0 0 C337.92 0 675.84 0 1024 0 C1024 337.92 1024 675.84 1024 1024 C686.08 1024 348.16 1024 0 1024 C0 686.08 0 348.16 0 0 Z " fill="#FCFCFC" transform="translate(0,0)"/>
<path d="M0 0 C337.92 0 675.84 0 1024 0 C1024 337.92 1024 675.84 1024 1024 C686.08 1024 348.16 1024 0 1024 C0 686.08 0 348.16 0 0 Z M461.9375 88.875 C460.74286133 89.05353516 459.54822266 89.23207031 458.31738281 89.41601562 C454.87666827 89.93421231 451.43825232 90.46575089 448 91 C447.0920166 91.13696289 446.1840332 91.27392578 445.24853516 91.41503906 C434.66473474 93.01188585 424.3251878 95.16150563 414 98 C413.14229004 98.23170898 412.28458008 98.46341797 411.40087891 98.70214844 C358.48728618 113.10532292 309.02709809 137.98016654 266 172 C265.00202393 172.78600586 265.00202393 172.78600586 263.98388672 173.58789062 C255.90944671 179.97471016 248.10840928 186.56928784 240.5859375 193.59765625 C238.47174559 195.56174692 236.3271455 197.44950349 234.125 199.3125 C225.75117213 206.5803506 217.78130548 214.63787083 210.62109375 223.1015625 C208.7190635 225.32900033 206.7339228 227.47022971 204.75 229.625 C199.16688108 235.82951158 194.05233875 242.36361573 189 249 C188.17725586 250.07797852 188.17725586 250.07797852 187.33789062 251.17773438 C170.56504224 273.25724666 155.98059683 296.96308471 143.97851562 321.97363281 C142.94521426 324.11345351 141.88744557 326.24013906 140.828125 328.3671875 C129.23339813 351.91340206 120.09413048 377.46346933 114 403 C113.7745752 403.9295752 113.54915039 404.85915039 113.31689453 405.81689453 C109.16882805 423.08656104 106.06179357 440.35877879 104 458 C103.82210937 459.49394287 103.82210937 459.49394287 103.640625 461.01806641 C101.90526663 476.39613052 101.79786922 491.79290521 101.75 507.25 C101.74464233 508.21274841 101.73928467 509.17549683 101.73376465 510.16741943 C101.64577031 531.01630111 103.53447938 551.34677755 107.125 571.875 C107.27617279 572.74853119 107.42734558 573.62206238 107.58309937 574.52206421 C112.29119846 601.54117075 119.03606158 627.38508521 129 653 C129.38349609 653.99837891 129.76699219 654.99675781 130.16210938 656.02539062 C135.1534528 668.90322848 140.97898807 681.32965539 147.125 693.6875 C147.45671204 694.35736938 147.78842407 695.02723877 148.13018799 695.71740723 C152.6416645 704.7940051 157.54851963 713.44598595 163 722 C163.47888672 722.76449463 163.95777344 723.52898926 164.45117188 724.31665039 C176.94897476 744.23442746 190.85455859 763.28753726 206.8046875 780.59375 C208.02446601 781.93073142 209.23583652 783.2760605 210.41137695 784.65209961 C215.31551696 790.38252446 220.57457568 795.72732524 225.9152832 801.0456543 C227.43491668 802.5599258 228.94912517 804.0794743 230.46289062 805.59960938 C235.80162857 810.94271059 241.21759808 816.13408865 247 821 C247.627854 821.53455811 248.25570801 822.06911621 248.90258789 822.61987305 C273.3419613 843.3174216 299.54723676 861.26774152 328 876 C328.73831055 876.38236816 329.47662109 876.76473633 330.23730469 877.15869141 C334.15878979 879.17600261 338.10246716 881.14202326 342.07128906 883.06445312 C343.38010468 883.69931153 344.68668458 884.33879582 345.99121094 884.98242188 C357.71363117 890.76195246 369.70998678 895.56339771 382 900 C382.67240723 900.24347168 383.34481445 900.48694336 384.03759766 900.73779297 C391.88271171 903.545366 399.84500521 905.85378349 407.875 908.0625 C408.72376709 908.29598145 409.57253418 908.52946289 410.44702148 908.77001953 C424.50604329 912.55822895 438.51056848 915.64497911 452.9375 917.625 C453.69146057 917.73016937 454.44542114 917.83533875 455.222229 917.94369507 C497.34904626 923.78969637 539.07083678 923.00531798 581 916 C581.70141113 915.88688477 582.40282227 915.77376953 583.12548828 915.65722656 C593.99051918 913.88533545 604.45794877 911.12783988 615 908 C615.97259766 907.71495605 616.94519531 907.42991211 617.94726562 907.13623047 C658.596923 895.17336343 696.59290571 878.37877152 732 855 C732.69287109 854.54270508 733.38574219 854.08541016 734.09960938 853.61425781 C749.88028747 843.12652486 764.84280216 831.59034271 779 819 C779.98484375 818.12730469 780.9696875 817.25460937 781.984375 816.35546875 C788.78331305 810.23997487 795.29835639 803.8256303 801.7890625 797.38616943 C803.20565861 795.98146903 804.62620508 794.58075592 806.046875 793.18017578 C811.37250724 787.86123885 816.29240767 782.37919167 820.99462891 776.50219727 C823.59651903 773.25569473 826.32551413 770.13217577 829.0625 767 C834.05154182 761.22105937 838.64616787 755.27684402 843 749 C843.83715865 747.8098389 844.67440363 746.61973852 845.51171875 745.4296875 C876.53581726 701.08387255 900.11214819 651.73393366 911.40649414 598.63891602 C912.03576255 595.84098834 912.75412422 593.07500416 913.48046875 590.30078125 C925.42722982 542.9682745 925.20880518 491.00291876 918 443 C917.70772506 440.88289639 917.41601612 438.76571452 917.125 436.6484375 C907.00906847 366.87326718 875.30219213 298.45692926 831 244 C830.21882812 243.02546875 829.43765625 242.0509375 828.6328125 241.046875 C823.62217567 234.83992695 818.38481998 228.88324959 813 223 C812.16855469 222.07574219 811.33710937 221.15148437 810.48046875 220.19921875 C801.55732473 210.33542119 792.3888732 200.47610785 782.21875 191.87890625 C780.38395677 190.32514649 778.57941703 188.74790767 776.78125 187.15234375 C763.58382034 175.48854949 749.70483121 164.70815179 735 155 C734.23655273 154.49388184 733.47310547 153.98776367 732.68652344 153.46630859 C705.01507278 135.22274157 675.367434 119.43846907 643.95019531 108.68139648 C641.99381914 107.99784041 640.06014975 107.26866615 638.125 106.52734375 C612.10311536 96.71997328 584.48467445 91.61878531 557 88 C556.13439453 87.88140625 555.26878906 87.7628125 554.37695312 87.640625 C541.22102259 85.90441421 528.05987708 85.82167133 514.8125 85.8125 C513.97354187 85.81141235 513.13458374 85.81032471 512.27020264 85.8092041 C495.38695486 85.81168189 478.64735713 86.29376296 461.9375 88.875 Z " fill="#FEFEFE" transform="translate(0,0)"/>
<path d="M0 0 C0.87611938 0.00126892 1.75223877 0.00253784 2.65490723 0.00384521 C90.89196917 0.24646405 179.28927637 33.34408116 253.1875 94.1875 C254.0861377 94.93749268 254.0861377 94.93749268 255.00292969 95.70263672 C271.69623702 109.66590234 288.12501376 124.53846767 302.1875 141.1875 C303.05503906 142.1775 303.92257812 143.1675 304.81640625 144.1875 C316.15716152 157.15860677 326.69184595 170.80453679 336.1875 185.1875 C336.69361816 185.95094727 337.19973633 186.71439453 337.72119141 187.50097656 C376.45069351 246.24505358 398.88280267 311.45857599 406.1875 381.1875 C406.27748764 382.0358139 406.36747528 382.88412781 406.46018982 383.75814819 C407.1016527 390.21969669 407.34701517 396.61036791 407.35546875 403.1015625 C407.35974884 404.10601913 407.36402893 405.11047577 407.36843872 406.14537048 C407.37836138 409.36779323 407.37850398 412.59006498 407.375 415.8125 C407.37406342 416.9155246 407.37312683 418.01854919 407.37216187 419.15499878 C407.34307465 434.9143962 407.26066691 450.54044077 405.1875 466.1875 C405.02620605 467.41065918 404.86491211 468.63381836 404.69873047 469.89404297 C402.38471159 487.04810359 399.2260783 503.89839942 394.84570312 520.65771484 C394.28695943 522.80523048 393.75276867 524.9557816 393.234375 527.11328125 C380.63402241 577.6865146 356.32275662 627.17907551 324.1875 668.1875 C322.99851951 669.76488078 321.80954033 671.34226256 320.62060547 672.91967773 C314.7876752 680.61269768 308.56640314 687.94395394 302.1875 695.1875 C301.38441406 696.10402344 300.58132813 697.02054688 299.75390625 697.96484375 C293.40766644 705.04217038 286.70917261 711.76946855 280 718.5 C279.52637024 718.97630859 279.05274048 719.45261719 278.5647583 719.94335938 C272.94882051 725.58336442 267.25054684 731.03159605 261.1875 736.1875 C260.21167969 737.04472656 259.23585938 737.90195312 258.23046875 738.78515625 C236.64178315 757.42053329 212.59590607 773.10293639 187.64160156 786.83496094 C186.0664605 787.70307489 184.49512037 788.57814221 182.92871094 789.46191406 C151.04325253 807.44821776 114.42895953 820.44543177 78.625 827.75 C77.59036621 827.96124512 76.55573242 828.17249023 75.48974609 828.39013672 C33.28185821 836.82395906 -9.11188062 837.99370489 -51.8125 833.1875 C-53.00617188 833.05359863 -54.19984375 832.91969727 -55.4296875 832.78173828 C-93.27905713 828.31581581 -130.07613633 816.62004152 -164.8125 801.1875 C-165.57771973 800.85041016 -166.34293945 800.51332031 -167.13134766 800.16601562 C-205.0592837 783.33191932 -240.90384679 759.49510202 -271.40625 731.3828125 C-272.74511868 730.16131218 -274.09217809 728.94809391 -275.46899414 727.76953125 C-281.14259746 722.90747876 -286.46767839 717.71848593 -291.74829102 712.43701172 C-293.23891615 710.94856763 -294.73737017 709.46832723 -296.23632812 707.98828125 C-301.77154972 702.48513433 -306.90123298 696.83400867 -311.77514648 690.72290039 C-313.61976988 688.42734449 -315.51972626 686.21158013 -317.4765625 684.01171875 C-320.89559081 680.14095354 -324.0658118 676.11271549 -327.1875 672 C-327.75057861 671.25951416 -328.31365723 670.51902832 -328.89379883 669.75610352 C-337.53903196 658.32160818 -345.35776823 646.42375938 -352.8125 634.1875 C-353.48627686 633.09147461 -354.16005371 631.99544922 -354.85424805 630.86621094 C-360.17252708 622.16054604 -365.06791387 613.31372953 -369.625 604.1875 C-369.9640033 603.51161835 -370.30300659 602.83573669 -370.65228271 602.13937378 C-377.58848407 588.24209056 -383.32130162 573.9938956 -388.63476562 559.40966797 C-389.62112596 556.71108097 -390.63524511 554.02716979 -391.671875 551.34765625 C-395.8834067 540.26980751 -398.49989732 528.80777082 -401.11108398 517.26391602 C-401.57826122 515.21487306 -402.05693376 513.16841676 -402.54711914 511.12475586 C-404.49647802 502.94963603 -406.06856041 494.74128502 -407.49243164 486.46166992 C-407.86946335 484.28200797 -408.25965432 482.10497516 -408.65039062 479.92773438 C-412.02953842 460.6779657 -413.20064725 441.46236675 -413.125 421.9375 C-413.12317719 420.94814453 -413.12135437 419.95878906 -413.11947632 418.93945312 C-412.96381494 368.28409731 -405.02580752 317.52053427 -385.72729492 270.47290039 C-384.61229157 267.68732623 -383.56476403 264.87841876 -382.5078125 262.0703125 C-379.74436929 254.87353238 -376.63310647 247.85964924 -373.375 240.875 C-373.07458801 240.22953217 -372.77417603 239.58406433 -372.46466064 238.91903687 C-366.3593659 225.86488161 -359.36851493 213.45989475 -351.8125 201.1875 C-351.29977539 200.34155273 -350.78705078 199.49560547 -350.25878906 198.62402344 C-336.80898756 176.44103917 -321.01565893 155.8366448 -303.31640625 136.875 C-300.98067217 134.36800305 -298.70533713 131.81829468 -296.4375 129.25 C-288.44416558 120.3525721 -279.95041127 111.90577148 -270.8125 104.1875 C-269.8225 103.31996094 -268.8325 102.45242187 -267.8125 101.55859375 C-220.17557473 59.90575385 -161.49453294 25.89798841 -99.328125 12.2421875 C-95.46110637 11.38320711 -91.66930926 10.30734472 -87.85546875 9.23828125 C-79.62021817 6.98397655 -71.31805952 5.69764478 -62.875 4.5 C-61.42110896 4.28658927 -59.96733218 4.07239866 -58.51367188 3.85742188 C-49.03292563 2.46519431 -39.62385858 1.11992659 -30.05078125 0.63671875 C-28.82093254 0.57396004 -28.82093254 0.57396004 -27.5662384 0.50993347 C-18.37893862 0.07430968 -9.19636754 -0.01389446 0 0 Z M-209.8125 81.1875 C-210.52229004 81.65929687 -211.23208008 82.13109375 -211.96337891 82.6171875 C-227.89583667 93.25106574 -243.08563841 104.92056173 -257.23046875 117.8515625 C-258.65346917 119.13893656 -260.08300656 120.41960863 -261.53930664 121.66918945 C-267.24428245 126.56929608 -272.57070592 131.79672267 -277.875 137.125 C-278.73416016 137.98029297 -279.59332031 138.83558594 -280.47851562 139.71679688 C-285.4653283 144.71122882 -290.2412881 149.81117663 -294.8125 155.1875 C-295.73684781 156.25532205 -296.66131949 157.3230369 -297.5859375 158.390625 C-349.56048223 219.01615076 -384.47494092 297.46177108 -391.8125 377.1875 C-391.90128418 378.11868652 -391.99006836 379.04987305 -392.08154297 380.00927734 C-395.45297282 416.42413096 -393.68855841 451.88735218 -387.39550781 487.84082031 C-386.78308955 491.35632683 -386.20348239 494.875939 -385.64208984 498.39990234 C-383.1622433 512.86824736 -378.83492662 526.73434587 -374.1875 540.625 C-373.79649109 541.79780014 -373.79649109 541.79780014 -373.39758301 542.99429321 C-368.82077437 556.67304997 -363.68984911 570.00991821 -357.8125 583.1875 C-357.11827477 584.79287587 -356.42425606 586.39834107 -355.73046875 588.00390625 C-351.74982594 597.02968057 -347.19438073 604.59942188 -340.8125 612.1875 C-340.10351562 613.05890625 -339.39453125 613.9303125 -338.6640625 614.828125 C-323.43248503 632.75409704 -300.92235356 643.79328169 -277.8125 647.1875 C-274.41032159 647.46194371 -271.03723913 647.52207016 -267.625 647.5 C-266.71008789 647.49508545 -265.79517578 647.4901709 -264.85253906 647.48510742 C-256.85886757 647.34851735 -249.56020939 646.24470763 -241.8125 644.1875 C-241.16958008 644.02121094 -240.52666016 643.85492187 -239.86425781 643.68359375 C-231.11259338 641.39058124 -222.72882014 638.43231086 -214.3125 635.125 C-199.11204192 629.24630963 -184.76916803 626.87767656 -168.61044312 625.50585938 C-158.31117363 624.62482843 -148.64861997 623.46992823 -138.8125 620.1875 C-138.17038574 619.98286133 -137.52827148 619.77822266 -136.86669922 619.56738281 C-123.75073579 615.33968851 -110.6578449 609.0328449 -100.8125 599.1875 C-100.8125 598.5275 -100.8125 597.8675 -100.8125 597.1875 C-100.1525 597.1875 -99.4925 597.1875 -98.8125 597.1875 C-87.85350798 584.85056006 -82.82590782 570.54405542 -79.5 554.625 C-75.9745606 538.62544328 -70.26051402 524.26189135 -61.8125 510.1875 C-61.1525 509.8575 -60.4925 509.5275 -59.8125 509.1875 C-59.44511719 510.26257813 -59.44511719 510.26257813 -59.0703125 511.359375 C-57.6557088 514.54003673 -55.92345552 516.77305126 -53.6875 519.4375 C-52.49640625 520.87222656 -52.49640625 520.87222656 -51.28125 522.3359375 C-48.35634439 525.7143886 -45.29597414 528.9455318 -42.1484375 532.1171875 C-40.8125 534.1875 -40.8125 534.1875 -40.84375 536.46875 C-42.15239939 540.1414112 -44.02450519 543.43146576 -45.9375 546.8125 C-52.37544241 558.59912401 -56.69374254 570.95546946 -60.25 583.875 C-63.47868751 595.48118918 -68.73135833 607.13744594 -76.8125 616.1875 C-77.3590625 616.82558594 -77.905625 617.46367188 -78.46875 618.12109375 C-90.24884925 630.92446433 -107.26118765 637.67407572 -123.01318359 644.18530273 C-136.35971278 649.70267457 -148.96298719 655.41907743 -159.8125 665.1875 C-160.49570312 665.77789063 -161.17890625 666.36828125 -161.8828125 666.9765625 C-177.06202036 680.96524426 -184.36503582 701.52202031 -185.26806641 721.78955078 C-185.64984098 741.31878851 -177.6856201 758.69276594 -164.8125 773.1875 C-164.20921875 773.88488281 -163.6059375 774.58226562 -162.984375 775.30078125 C-156.39852166 782.42623182 -145.86165032 790.53798479 -135.9296875 791.453125 C-132.21924137 791.43524333 -128.51865592 791.35896846 -124.8125 791.1875 C-124.12381836 791.1570459 -123.43513672 791.1265918 -122.72558594 791.09521484 C-88.65277263 789.26794165 -54.71224584 774.78942241 -27.8125 754.1875 C-26.76707031 753.42566406 -25.72164063 752.66382813 -24.64453125 751.87890625 C-18.8925718 747.67246695 -13.47324878 743.25998572 -8.23828125 738.42578125 C-6.63089038 736.94263315 -5.00321773 735.48114711 -3.35546875 734.04296875 C4.34817637 727.30986159 12.4642523 719.74403864 18.1875 711.1875 C18.1875 710.5275 18.1875 709.8675 18.1875 709.1875 C19.1775 709.1875 20.1675 709.1875 21.1875 709.1875 C21.55488281 710.06148437 21.55488281 710.06148437 21.9296875 710.953125 C23.39185874 713.55052236 25.03490414 715.02725831 27.3125 716.9375 C28.03695313 717.55109375 28.76140625 718.1646875 29.5078125 718.796875 C30.06210937 719.25578125 30.61640625 719.7146875 31.1875 720.1875 C30.66703068 724.30023692 29.58562886 726.31198537 26.73046875 729.2890625 C26.02986328 730.02640625 25.32925781 730.76375 24.60742188 731.5234375 C23.87072266 732.27882813 23.13402344 733.03421875 22.375 733.8125 C21.64990234 734.575625 20.92480469 735.33875 20.17773438 736.125 C14.76223682 741.7733689 14.76223682 741.7733689 11.9465332 743.80224609 C11.36605225 744.25937988 10.78557129 744.71651367 10.1875 745.1875 C10.1875 745.8475 10.1875 746.5075 10.1875 747.1875 C9.62289063 747.42855469 9.05828125 747.66960938 8.4765625 747.91796875 C5.72468537 749.44418047 3.82287367 751.30779633 1.5625 753.5 C-15.31595715 769.28537612 -35.97445131 781.42174073 -56.8125 791.1875 C-58.42898438 791.96867188 -58.42898438 791.96867188 -60.078125 792.765625 C-71.21316739 797.87591016 -83.03167405 800.93230999 -94.8125 804.1875 C-91.37347069 806.4801862 -88.1950208 807.13922855 -84.22265625 807.94921875 C-83.48172226 808.10413284 -82.74078827 808.25904694 -81.97740173 808.4186554 C-80.41213784 808.74378614 -78.84616074 809.06549952 -77.27954102 809.3840332 C-74.88502579 809.8729529 -72.49434285 810.37815728 -70.10351562 810.88476562 C-68.58093392 811.19891069 -67.0581534 811.51209401 -65.53515625 811.82421875 C-64.46467796 812.0522242 -64.46467796 812.0522242 -63.37257385 812.28483582 C-59.91528855 812.97434103 -57.16171985 813.47922647 -53.8125 812.1875 C-54.45058594 811.63320313 -55.08867187 811.07890625 -55.74609375 810.5078125 C-56.57238281 809.78335938 -57.39867187 809.05890625 -58.25 808.3125 C-59.07371094 807.59320312 -59.89742188 806.87390625 -60.74609375 806.1328125 C-62.8125 804.1875 -62.8125 804.1875 -63.8125 802.1875 C-62.92498047 801.89746094 -62.92498047 801.89746094 -62.01953125 801.6015625 C-61.22933594 801.34117187 -60.43914062 801.08078125 -59.625 800.8125 C-58.8 800.54179688 -57.975 800.27109375 -57.125 799.9921875 C-54.71596214 799.19725263 -54.71596214 799.19725263 -52.125 797.9375 C-48.92589116 796.89995119 -47.0792047 797.35724489 -43.8125 798.1875 C-41.39501652 799.66343728 -39.15643086 801.15393887 -36.875 802.8125 C-25.75123014 810.57113091 -11.82392882 819.17093603 2.1875 817.1875 C15.00076594 813.75287182 28.35708228 807.11770547 38.328125 798.29296875 C40.1875 797.1875 40.1875 797.1875 43.0390625 797.33984375 C46.36332115 798.23483646 49.40431643 799.38145379 52.5625 800.75 C53.62210938 801.20503906 54.68171875 801.66007813 55.7734375 802.12890625 C56.57007813 802.47824219 57.36671875 802.82757812 58.1875 803.1875 C54.85416667 806.52083333 51.52083333 809.85416667 48.1875 813.1875 C55.74886314 812.51073711 63.13656218 811.14664566 70.57397461 809.65844727 C72.64346338 809.24632315 74.71512595 808.84663415 76.78710938 808.44726562 C78.10691993 808.18564688 79.42658716 807.9233038 80.74609375 807.66015625 C82.52971313 807.30836304 82.52971313 807.30836304 84.34936523 806.94946289 C87.29646024 806.41159086 87.29646024 806.41159086 89.1875 804.1875 C88.6298999 804.03716309 88.0722998 803.88682617 87.49780273 803.73193359 C57.11171478 795.47291061 30.19903775 782.33752745 5.1875 763.1875 C6.69099377 759.51963607 8.82478792 757.49839607 11.8125 754.9375 C13.03839844 753.87789062 13.03839844 753.87789062 14.2890625 752.796875 C14.91554688 752.26578125 15.54203125 751.7346875 16.1875 751.1875 C19.44388906 752.38076586 22.00115089 753.62678868 24.6875 755.8125 C49.69847151 775.02315344 82.59950501 789.00946068 114.1875 791.1875 C114.95843994 791.24856934 115.72937988 791.30963867 116.52368164 791.37255859 C132.25278683 792.45571554 142.36576686 788.58253373 154.5 778.5625 C168.00947164 766.76872381 177.93627118 749.13245966 179.35498047 731.05322266 C179.51147809 726.75585638 179.40682585 722.48263115 179.1875 718.1875 C179.8165625 718.331875 180.445625 718.47625 181.09375 718.625 C186.59316619 719.81764447 191.56416943 720.3957715 197.1875 720.1875 C196.69486065 735.73027139 193.25367482 749.89221099 187.1875 764.1875 C191.61995772 762.61414669 195.4800238 760.31183062 199.4375 757.8125 C200.13278809 757.37478271 200.82807617 756.93706543 201.54443359 756.48608398 C217.56091546 746.29524349 233.011604 735.06700259 246.98828125 722.19921875 C249.05587583 720.30790222 251.16748667 718.48999623 253.3125 716.6875 C254.26125 715.8625 255.21 715.0375 256.1875 714.1875 C256.1875 713.8575 256.1875 713.5275 256.1875 713.1875 C255.02021362 713.29034302 255.02021362 713.29034302 253.8293457 713.39526367 C208.46807906 717.16833202 153.7438874 712.31524122 112.8828125 690.984375 C111.04720579 689.97480235 111.04720579 689.97480235 108.1875 690.1875 C111.19403928 704.21801662 117.54318958 715.65196617 127.1875 726.1875 C127.94804688 727.04085937 128.70859375 727.89421875 129.4921875 728.7734375 C138.20445494 738.05700117 148.99113226 744.29311592 160.1875 750.1875 C160.1875 751.5075 160.1875 752.8275 160.1875 754.1875 C154.21328903 754.4548025 149.65183367 753.75972928 144.0625 751.6875 C143.32894287 751.41977783 142.59538574 751.15205566 141.83959961 750.8762207 C129.50454301 746.19538221 116.67289597 739.41559395 109.1875 728.1875 C108.5275 728.1875 107.8675 728.1875 107.1875 728.1875 C106.97996094 729.0846875 106.77242187 729.981875 106.55859375 730.90625 C102.68154387 746.60911311 96.32615859 759.8796774 87.1875 773.1875 C86.5275 774.1775 85.8675 775.1675 85.1875 776.1875 C78.03581485 775.68854522 71.77458719 772.87186185 65.1875 770.1875 C65.23390625 769.01574219 65.2803125 767.84398437 65.328125 766.63671875 C65.82539827 748.82408661 60.69187195 737.74114323 48.6015625 724.66015625 C43.11358584 719.03897627 37.20410651 713.98090646 31.0703125 709.08203125 C25.0516684 704.16564177 19.46135145 698.89902308 13.9375 693.4375 C12.96748278 692.50907816 11.99743081 691.58069261 11.02734375 690.65234375 C9.67576172 689.31623047 9.67576172 689.31623047 8.296875 687.953125 C7.48186523 687.15680664 6.66685547 686.36048828 5.82714844 685.54003906 C4.1875 683.1875 4.1875 683.1875 4.30151367 680.57055664 C5.52925605 677.26827134 7.46673705 675.04416655 9.75 672.375 C10.98943359 670.91126953 10.98943359 670.91126953 12.25390625 669.41796875 C12.89199219 668.68191406 13.53007813 667.94585938 14.1875 667.1875 C17.63569302 670.58037442 20.90646325 674.07718451 24.125 677.6875 C32.04409716 686.42397285 40.66978589 694.44570241 49.875 701.8125 C65.26199958 714.26218688 75.5196154 728.51742312 82.1875 747.1875 C90.70531498 737.42073854 91.20890036 721.5864603 90.375 709.328125 C88.61874565 689.27755449 77.89975368 676.82581418 63.84814453 663.51000977 C62.28057036 661.97984384 62.28057036 661.97984384 60.1875 662.1875 C60.02894531 663.03570313 59.87039063 663.88390625 59.70703125 664.7578125 C58.13674496 672.65262204 56.02996818 679.91174303 53.17578125 687.421875 C52.0753317 690.01191057 52.0753317 690.01191057 52.1875 692.1875 C46.33163414 689.07657126 40.87237554 684.71481331 37.1875 679.1875 C37.17578125 677.20703125 37.17578125 677.20703125 37.5 675 C37.60828125 674.195625 37.7165625 673.39125 37.828125 672.5625 C38.13394282 670.5414431 38.44175934 668.5206888 38.75 666.5 C40.67903405 650.19966226 37.70761272 635.7346033 30.1875 621.1875 C29.5275 621.1875 28.8675 621.1875 28.1875 621.1875 C27.8471875 622.16847656 27.506875 623.14945313 27.15625 624.16015625 C19.30094085 646.26945176 6.73295341 664.71934821 -8.8125 682.1875 C-9.30202148 682.74405273 -9.79154297 683.30060547 -10.29589844 683.87402344 C-19.71582876 694.56213856 -19.71582876 694.56213856 -23.8125 696.1875 C-25.01534401 694.11176919 -26.19955701 692.02866905 -27.375 689.9375 C-27.71724609 689.35097656 -28.05949219 688.76445313 -28.41210938 688.16015625 C-30.80747481 683.85333759 -30.80747481 683.85333759 -30.828125 681.1171875 C-29.30946481 678.23173313 -27.17617759 675.95864818 -25 673.5625 C-6.53735624 652.43782912 8.04910945 625.09690179 6.37841797 596.32080078 C4.33246106 573.45945617 -6.45525931 556.75646123 -21.8125 540.1875 C-24.0284335 537.72579212 -26.23678599 535.25741566 -28.4453125 532.7890625 C-30.06226163 531.0120194 -31.70427503 529.257545 -33.3671875 527.5234375 C-54.48119941 505.30782497 -65.360581 481.1983452 -70.13037109 451.1875 C-74.07343907 426.45425891 -84.63452646 405.21143969 -104.5 389.4375 C-125.73780703 374.2479111 -150.61346667 369.55739876 -176.421875 373.80078125 C-189.20671513 376.91468544 -202.03704036 383.3469076 -211.8125 392.1875 C-212.42222656 392.71730469 -213.03195312 393.24710937 -213.66015625 393.79296875 C-221.16464423 400.7366818 -226.06856227 409.76952 -229.8125 419.1875 C-231.4625 419.1875 -233.1125 419.1875 -234.8125 419.1875 C-233.85698998 411.94273749 -232.0164237 405.68285388 -229.03125 399.01171875 C-227.78055404 396.11347138 -226.77155494 393.19342682 -225.8125 390.1875 C-226.823125 390.331875 -227.83375 390.47625 -228.875 390.625 C-230.174375 390.810625 -231.47375 390.99625 -232.8125 391.1875 C-234.35744141 391.44466797 -234.35744141 391.44466797 -235.93359375 391.70703125 C-248.82539171 393.30390048 -265.85116035 394.16816983 -277.8125 388.1875 C-276.64976711 384.69930132 -276.02879947 383.8802892 -272.8125 382.1875 C-270.47444421 382.48591356 -268.1415926 382.82572216 -265.8125 383.1875 C-244.29408038 384.52282411 -225.95609939 377.54510767 -206.92382812 367.99365234 C-205.02776745 367.04512461 -203.12364964 366.11422063 -201.21875 365.18359375 C-200.00469192 364.57916116 -198.79112969 363.97373131 -197.578125 363.3671875 C-195.95052246 362.55870361 -195.95052246 362.55870361 -194.29003906 361.73388672 C-191.51932301 360.37021216 -191.51932301 360.37021216 -190.8125 357.1875 C-192.33617187 356.47787109 -192.33617187 356.47787109 -193.890625 355.75390625 C-204.39629364 350.75364902 -213.4673998 345.00154938 -222.171875 337.1953125 C-233.08397535 327.43907745 -245.40070196 318.4169101 -260.8125 319.1875 C-261.1425 316.8775 -261.4725 314.5675 -261.8125 312.1875 C-259.27055839 312.32938985 -256.72902007 312.47589155 -254.1875 312.625 C-253.47464844 312.66431641 -252.76179687 312.70363281 -252.02734375 312.74414062 C-247.89446318 312.99059681 -243.88980976 313.42220053 -239.8125 314.1875 C-240.43125 312.33125 -240.43125 312.33125 -241.0625 310.4375 C-242.97916667 304.6875 -244.89583333 298.9375 -246.8125 293.1875 C-247.40562988 293.1781543 -247.99875977 293.16880859 -248.60986328 293.15917969 C-269.77639436 292.74133835 -286.58972054 289.59948075 -302.6875 274.5078125 C-314.41338961 261.70417568 -321.65325687 245.37507533 -323.8125 228.1875 C-319.93889496 228.11191935 -316.06558994 228.0582437 -312.19140625 228.02270508 C-310.24463762 228.00064739 -308.29807235 227.96248082 -306.3515625 227.92382812 C-287.69269602 227.78103068 -269.65188084 232.80882199 -255.40625 245.296875 C-245.75021171 255.15132504 -240.48736443 267.82989577 -237.8125 281.1875 C-233.53383232 301.4083189 -224.34812416 318.03443785 -207.16796875 330.125 C-188.57221286 341.55522015 -169.14040084 345.06955688 -147.6628418 346.8815918 C-120.24302575 349.2231384 -95.41122156 355.39655306 -73.8125 373.1875 C-72.99394531 373.84234375 -72.17539062 374.4971875 -71.33203125 375.171875 C-65.21947444 380.2350194 -65.21947444 380.2350194 -64.8125 384.1875 C-65.11674757 386.52480378 -65.45463922 388.85780233 -65.8125 391.1875 C-67.29077139 410.83080857 -63.91545064 429.7150338 -54.8125 447.1875 C-54.50296387 447.79142578 -54.19342773 448.39535156 -53.87451172 449.01757812 C-45.03773205 466.02161497 -32.30650406 479.91201501 -18.71923828 493.24780273 C-16.98204476 495.01502457 -15.38182443 496.82920581 -13.78515625 498.72265625 C-9.47632248 503.68235401 -4.77335952 508.22867001 -0.08206177 512.82061768 C14.41659017 527.0551707 27.32173259 541.66136802 35.5546875 560.51171875 C35.8558548 561.20113052 36.15702209 561.8905423 36.46731567 562.60084534 C39.51389454 569.72335024 41.93548003 577.02062162 44.32891846 584.38244629 C48.55208103 597.2926251 52.89433494 609.64666738 60.1875 621.1875 C60.57083496 621.81914063 60.95416992 622.45078125 61.34912109 623.1015625 C84.86446753 661.72636058 123.71911542 679.70285614 166.1875 690.1875 C172.04512181 691.56083806 177.92549051 692.73000077 183.8515625 693.765625 C186.07818458 694.16775742 188.28656033 694.62521168 190.5 695.09375 C202.20571079 697.39070991 213.92649024 697.5069192 225.8125 697.5625 C226.6348111 697.57035522 227.45712219 697.57821045 228.30435181 697.58630371 C243.3536898 697.69808175 258.77983868 696.80848616 272.8125 690.875 C273.56265381 690.56723633 274.31280762 690.25947266 275.08569336 689.94238281 C284.84612854 685.80191584 290.39589946 680.21014984 296.87792969 671.86328125 C298.34246034 669.98920623 299.82934083 668.13435349 301.3203125 666.28125 C307.36105348 658.81772139 307.36105348 658.81772139 313.1875 651.1875 C312.8575 650.5275 312.5275 649.8675 312.1875 649.1875 C311.25550781 649.64640625 310.32351563 650.1053125 309.36328125 650.578125 C301.15431097 654.55471755 293.05247086 657.90081436 284.1875 660.1875 C282.93839844 660.54972656 281.68929687 660.91195312 280.40234375 661.28515625 C272.96545924 662.90924059 265.19702835 662.39563154 257.625 662.3125 C256.0280004 662.30245088 254.43099468 662.29332844 252.83398438 662.28515625 C248.95166994 662.26329391 245.06965356 662.2288706 241.1875 662.1875 C242.63348498 665.13299644 244.2326728 667.85976245 246 670.625 C249.57338261 676.49869279 251.89841967 682.72540598 254.1875 689.1875 C249.28177282 690.06676262 245.05932442 690.36666769 240.1875 689.1875 C236.71251855 685.51543005 234.59818364 681.44623104 232.24072266 677.00878906 C229.63387667 672.50089128 225.84660311 668.84660311 222.1875 665.1875 C221.61515625 664.61515625 221.0428125 664.0428125 220.453125 663.453125 C204.47323058 648.69074634 182.01865172 645.49907761 161.1875 646.1875 C163.52011353 648.54046793 165.85012185 650.87828886 168.29296875 653.1171875 C173.07171407 657.58213154 176.89045162 662.32928349 180.5 667.75 C180.90822998 668.36278809 181.31645996 668.97557617 181.73706055 669.60693359 C185.29749047 675.10150547 188.76409618 680.74157787 190.1875 687.1875 C169.19173928 684.16137379 169.19173928 684.16137379 162.875 675.875 C161.25819419 673.67762091 159.72367048 671.44383596 158.1875 669.1875 C146.1704503 654.90981719 127.41991616 647.76613319 110.45336914 641.09985352 C86.30326111 631.56064186 69.01296607 617.96107255 58.1875 594.1875 C55.85356564 588.63652098 54.1127176 582.96704802 52.49023438 577.17724609 C46.26623074 555.15118879 35.65271271 536.06347168 20.08105469 519.23828125 C18.65449121 517.69326665 17.24060663 516.13653083 15.83300781 514.57421875 C8.46100431 506.42578772 0.74946985 498.66248609 -7.0625 490.9375 C-19.10602017 479.0265343 -29.87574166 466.92598847 -39.8125 453.1875 C-40.42609375 452.35605469 -41.0396875 451.52460937 -41.671875 450.66796875 C-50.86739691 436.94884332 -55.21475053 417.87758474 -55.125 401.5625 C-55.12008545 400.50361572 -55.1151709 399.44473145 -55.11010742 398.35375977 C-54.87663004 382.65330412 -51.12175781 367.1473325 -43.8125 353.1875 C-39.62863215 356.45295784 -36.17224349 359.91482055 -32.73046875 363.94921875 C-30.63079218 366.39955413 -28.47743624 368.79467573 -26.3125 371.1875 C-25.5596875 372.02539062 -24.806875 372.86328125 -24.03125 373.7265625 C-22.60183045 375.31201024 -21.16487125 376.89070883 -19.71875 378.4609375 C-19.0896875 379.15445312 -18.460625 379.84796875 -17.8125 380.5625 C-17.255625 381.16835938 -16.69875 381.77421875 -16.125 382.3984375 C-14.65181966 384.4065226 -14.1189797 385.72151718 -13.8125 388.1875 C-14.15234375 390.23828125 -14.15234375 390.23828125 -14.75 392.5 C-18.40472984 409.28192273 -14.34356693 423.34593156 -5.5703125 437.5859375 C-2.323046 442.39189192 1.37006808 446.82748238 5.1875 451.1875 C5.81688477 451.90663574 6.44626953 452.62577148 7.09472656 453.36669922 C12.92242131 459.93617143 19.06006619 466.14966095 25.3125 472.3125 C50.36649985 497.01016122 67.87159269 523.60767372 75.09765625 558.4609375 C78.04979482 572.62894787 83.38243263 585.31320254 93.1875 596.1875 C93.67089844 596.76242187 94.15429688 597.33734375 94.65234375 597.9296875 C102.46420023 606.55652138 113.22054231 612.70959563 123.875 617.125 C124.52645996 617.39505859 125.17791992 617.66511719 125.84912109 617.94335938 C139.37443464 623.22642375 153.45810309 624.41985877 167.77075195 625.91430664 C184.31507437 627.66067622 198.99764012 631.11209503 214.5625 637.1875 C224.6830854 641.0433292 234.54648009 644.15881635 245.1875 646.1875 C245.95191406 646.37828125 246.71632813 646.5690625 247.50390625 646.765625 C271.24852961 650.49840422 296.77809185 644.16657512 316.1875 630.1875 C348.02712003 606.93073406 360.26529425 568.13546065 371.36279297 531.82006836 C372.10347572 529.45571606 372.90227561 527.12268282 373.72265625 524.78515625 C375.66449995 519.00931674 376.89879018 513.07398119 378.1875 507.125 C378.45022705 505.92053223 378.7129541 504.71606445 378.98364258 503.47509766 C379.72622529 500.0475444 380.45909077 496.61808964 381.1875 493.1875 C381.44345947 491.99616455 381.44345947 491.99616455 381.70458984 490.78076172 C385.78709152 471.55840638 387.71529434 451.81483086 388.1875 432.1875 C388.22004883 431.15753906 388.25259766 430.12757813 388.28613281 429.06640625 C389.40727219 390.24553978 384.70369315 350.57996796 374.1875 313.1875 C373.92662598 312.24358398 373.66575195 311.29966797 373.39697266 310.32714844 C366.47140602 285.5901274 356.95865521 261.04742462 345.1875 238.1875 C344.77242187 237.37796875 344.35734375 236.5684375 343.9296875 235.734375 C331.21478005 211.17643948 315.81974061 187.52033432 298.1875 166.1875 C297.54039062 165.36765625 296.89328125 164.5478125 296.2265625 163.703125 C281.82759904 145.61074712 265.03598285 127.28547998 246.70703125 113.171875 C244.52296131 111.45170829 242.44847508 109.67312174 240.3671875 107.83203125 C198.65824763 71.12816416 145.63387575 45.29047765 92.1875 31.1875 C91.26759277 30.93758301 90.34768555 30.68766602 89.39990234 30.43017578 C76.09582112 26.84437231 62.75055751 24.32682796 49.125 22.375 C48.39859314 22.2697702 47.67218628 22.16454041 46.92376709 22.05612183 C30.57818178 19.71723493 14.30808793 18.9756192 -2.1875 19 C-3.42922974 19.00140488 -3.42922974 19.00140488 -4.69604492 19.00283813 C-77.28597946 19.17959368 -149.36163896 40.78683423 -209.8125 81.1875 Z " fill="#030303" transform="translate(514.8125,85.8125)"/>
<path d="M0 0 C10.40406698 4.21786499 17.55602296 19.07074933 21.83007812 28.91113281 C27.45133175 42.90791347 27.49916517 57.37267582 24 72 C23.77828125 72.93714844 23.5565625 73.87429687 23.328125 74.83984375 C18.69879479 91.10800887 6.74386063 105.17886909 -4.10839844 117.81689453 C-27.36821712 144.90438163 -37.79585291 172.00061051 -36 208 C-32.94759098 239.24688291 -13.34324462 268.23096327 7 291 C7.46293457 291.51933105 7.92586914 292.03866211 8.40283203 292.57373047 C13.00492619 297.71313303 17.68970432 302.73859121 22.625 307.5625 C27.50238937 312.38800225 31.73783834 317.63205584 36 323 C36.88531338 324.07277592 37.77208101 325.14435306 38.66015625 326.21484375 C59.67458859 351.82606704 71.9042426 383.54199741 69 417 C67.35729562 428.45468272 64.57722083 439.37102704 60 450 C56.20825852 446.26175752 52.59530999 442.41271587 49.09643555 438.39916992 C45.90087977 434.82367545 42.52614177 431.71449446 38.8359375 428.6484375 C23.72291569 415.67108236 23.72291569 415.67108236 22.85546875 406.6796875 C22.80167886 401.34886889 23.30844723 396.08059623 23.83642578 390.78027344 C25.17521616 368.0248334 4.48299669 346.48072852 -9.53417969 330.63623047 C-12.34414674 327.49958837 -15.20559467 324.41069482 -18.06884766 321.32275391 C-21.76067568 317.31916559 -25.20609411 313.15379371 -28.62109375 308.9140625 C-31.85988289 304.94667876 -35.20664308 301.07651854 -38.55395508 297.20068359 C-41.65058036 293.60514387 -44.66150047 289.95699234 -47.625 286.25 C-63.85613946 266.44742914 -83.34990117 256.75562116 -108 251 C-136.43803465 244.28220627 -161.64149773 236.46341698 -177.92114258 210.34643555 C-182.85808506 202.09334959 -187.61643764 193.78084028 -188 184 C-185.36 183.67 -182.72 183.34 -180 183 C-179.45472656 184.02738281 -178.90945313 185.05476562 -178.34765625 186.11328125 C-168.73978973 203.90969485 -156.8810182 218.34434693 -137 225 C-133.46001398 226.05694269 -129.89928543 226.99083768 -126.3125 227.875 C-125.44568604 228.0905957 -124.57887207 228.30619141 -123.68579102 228.52832031 C-117.71695656 229.89463223 -112.11317563 230.25025174 -106 230 C-106.47050781 229.15179688 -106.94101562 228.30359375 -107.42578125 227.4296875 C-115.42240151 212.5583289 -117.65267737 197.7118674 -115 181 C-114.34 180.01 -113.68 179.02 -113 178 C-108.125 179.875 -108.125 179.875 -107 181 C-106.64777046 183.18145521 -106.34373062 185.37076054 -106.0625 187.5625 C-104.28358468 200.39146597 -100.66699949 210.49408634 -93 221 C-92.56042969 221.61875 -92.12085938 222.2375 -91.66796875 222.875 C-83.75649491 233.08923711 -67.57739948 241.15405714 -55 244 C-55.25394531 243.16339844 -55.50789062 242.32679688 -55.76953125 241.46484375 C-57.64785007 235.11232729 -59.24542831 228.91569355 -60.375 222.375 C-63.0164954 208.93117867 -69.62479331 200.42870288 -79 191 C-79.72832031 190.24589844 -80.45664062 189.49179687 -81.20703125 188.71484375 C-84.32773542 185.52027676 -87.53250984 182.51387945 -90.9375 179.625 C-104.79182941 167.529521 -112.48725943 153.34540772 -117.80859375 135.9609375 C-118.01766357 135.28369629 -118.2267334 134.60645508 -118.44213867 133.90869141 C-118.94157901 132.19988414 -119.35925348 130.46767391 -119.765625 128.734375 C-121.47956506 124.93767235 -123.71427058 123.88805247 -127.3125 121.875 C-141.53555474 113.79851054 -149.17238835 102.36612996 -153.96484375 86.8828125 C-158.40133959 70.15906321 -156.55295618 50.2749276 -148 35 C-130.5492562 40.86839172 -115.03237106 53.4228356 -106.53515625 69.828125 C-102.78801338 77.77858465 -100.6104082 85.01546609 -100.625 93.8125 C-100.62371094 94.63347168 -100.62242187 95.45444336 -100.62109375 96.30029297 C-100.73423043 103.02806867 -101.83452928 109.28433702 -103.57666016 115.77270508 C-106.34485911 126.26745756 -104.81448166 134.26687722 -100 144 C-97.55790387 147.86501101 -94.88372723 151.45541862 -92 155 C-91.21496094 155.99644531 -90.42992187 156.99289062 -89.62109375 158.01953125 C-86.96181578 161.04341961 -84.27760459 163.33360361 -81.0625 165.75 C-80.50836426 166.16830078 -79.95422852 166.58660156 -79.38330078 167.01757812 C-72.05538519 172.51607559 -64.62304689 177.91796874 -57 183 C-56.84144531 182.14019531 -56.68289063 181.28039062 -56.51953125 180.39453125 C-52.48578138 159.95835095 -43.36824053 141.8816808 -30 126 C-29.52127441 125.42652832 -29.04254883 124.85305664 -28.54931641 124.26220703 C-24.16240357 119.02335544 -19.74020539 113.81948131 -15.05078125 108.84765625 C-14.14714844 107.88730469 -13.24351562 106.92695313 -12.3125 105.9375 C-11.50425781 105.10089844 -10.69601562 104.26429688 -9.86328125 103.40234375 C-7.83503766 100.78731271 -7.05904155 99.30632681 -7 96 C-8.1625541 94.15236083 -8.1625541 94.15236083 -10 92.5625 C-20.36741997 81.57303483 -24.51926539 66.69650874 -24.42211914 51.90869141 C-23.76880599 31.39251631 -13.27447372 14.93378294 0 0 Z " fill="#030303" transform="translate(511,127)"/>
<path d="M0 0 C3.60322879 2.72876098 4.40758738 6.66803665 5.625 10.8125 C5.8415625 11.51181641 6.058125 12.21113281 6.28125 12.93164062 C11.59653611 30.46880373 9.8980868 48.70614079 2.375 65.3125 C-3.69416722 76.50775582 -12.94465024 85.13233604 -24.6796875 90.14453125 C-28.23153028 92.98480957 -28.43628693 96.36388428 -29.3125 100.6875 C-34.42052142 122.56175246 -47.04200364 138.74566844 -63.9375 153.22265625 C-67.19914807 156.03335677 -70.37687973 158.93654018 -73.5703125 161.82421875 C-75.64806226 163.68484032 -77.75294291 165.50302808 -79.875 167.3125 C-96.78957055 182.13842925 -114.40952925 202.45641947 -116.234375 226.02734375 C-116.24751791 228.37006763 -116.18967837 230.66590225 -116 233 C-115.5875 232.50371094 -115.175 232.00742187 -114.75 231.49609375 C-104.9446512 219.96167675 -93.25904511 212.11097863 -79.84423828 205.31396484 C-61.18466498 195.85687836 -49.08407682 184.08508548 -42.2890625 163.88671875 C-40.85436831 158.86528909 -40.68564545 153.84041356 -40.5390625 148.63671875 C-40 146 -40 146 -38.1484375 144.14453125 C-36 143 -36 143 -33 143 C-31.21157601 149.1317394 -30.6920808 154.62888853 -30.75 161 C-30.73839844 162.27617187 -30.73839844 162.27617187 -30.7265625 163.578125 C-30.75068832 171.4431411 -32.38239273 177.98825624 -35.5 185.25 C-35.9228125 186.24515625 -36.345625 187.2403125 -36.78125 188.265625 C-37.79758626 190.5458666 -38.8585256 192.78046645 -40 195 C-18.68227924 195.78523664 0.90098981 187.7652204 16.5703125 173.69140625 C23.72494434 166.29994861 28.43159357 157.13681286 33 148 C38.75 147.875 38.75 147.875 41 149 C40.43083821 154.50429879 39.05731571 159.14899419 36.9375 164.25 C36.62804443 164.99507812 36.31858887 165.74015625 35.99975586 166.5078125 C33.17258803 173.04585903 29.56847656 178.52845249 25 184 C24.09507812 185.16402344 24.09507812 185.16402344 23.171875 186.3515625 C13.82922425 197.77471951 1.38229194 203.65596527 -12 209 C-12.77730469 209.34546875 -13.55460938 209.6909375 -14.35546875 210.046875 C-18.41717905 211.51077059 -22.60546233 212.36282839 -26.8125 213.3125 C-53.2546286 219.49306491 -76.82661848 228.51616385 -92.125 252.1875 C-98.15891076 262.31417969 -101.58878231 272.31006242 -103 284 C-106.72039495 282.75986835 -107.50764862 281.3409569 -109.875 278.25 C-113.54588021 273.63740706 -117.41930547 269.44044523 -121.625 265.3125 C-125.69279199 261.31508302 -129.63883783 257.30513454 -133.328125 252.94921875 C-135.32714058 250.61859078 -137.41623386 248.38008248 -139.5 246.125 C-141.01005071 244.42554431 -142.5101776 242.71721635 -144 241 C-145.07121094 239.77603516 -145.07121094 239.77603516 -146.1640625 238.52734375 C-149.44320306 234.40555552 -151.52949994 231.2517764 -151.3125 225.875 C-148.47398953 209.35579974 -139.56237092 194.26273781 -130.4375 180.5 C-125.45372874 172.96575578 -121.38953023 165.37242936 -118 157 C-117.64035156 156.14019531 -117.28070312 155.28039062 -116.91015625 154.39453125 C-112.50066507 141.6131029 -113.11977919 124.10741118 -119 112 C-119.43570313 111.07316406 -119.87140625 110.14632812 -120.3203125 109.19140625 C-124.14852652 101.65003383 -129.16031704 95.16697403 -134.87890625 88.9609375 C-139.00854476 84.4576194 -139.00854476 84.4576194 -138.96484375 82.1171875 C-137.58839018 79.0967914 -135.41592623 77.23008575 -133 75 C-108.29094529 97.5798344 -95.88500335 117.1273285 -94 151 C-83.34421581 144.0520617 -72.91048843 136.98652489 -63 129 C-61.99582031 128.21496094 -60.99164062 127.42992187 -59.95703125 126.62109375 C-56.78198013 123.80674857 -54.37482099 120.9480824 -51.9375 117.5 C-51.50703369 116.89124023 -51.07656738 116.28248047 -50.63305664 115.65527344 C-46.64704277 109.81324592 -43.92916732 103.81876192 -42 97 C-41.77183594 96.20722656 -41.54367187 95.41445313 -41.30859375 94.59765625 C-40.20059219 88.75818856 -41.74392475 83.98128071 -43.4375 78.4375 C-47.60572902 64.74536066 -47.4159136 52.3992326 -42 39 C-41.69964844 38.25363281 -41.39929688 37.50726563 -41.08984375 36.73828125 C-33.15195445 19.24743426 -16.82328823 7.91684152 0 0 Z " fill="#030303" transform="translate(660,162)"/>
<path d="M0 0 C10.75271012 4.42903392 19.40822119 19.47278454 24.265625 29.65234375 C25.04034085 32.12896198 25.11360035 33.63751333 24.75 36.1875 C24.64300781 36.96867188 24.53601563 37.74984375 24.42578125 38.5546875 C24.00097326 40.99441045 23.47753345 43.39594744 22.9375 45.8125 C20.91360769 55.90106245 22.11101184 64.81904735 24.57666016 74.68164062 C26.57841008 82.77420042 26.15444748 87.67520063 22.3125 95.0625 C21.80299805 96.10374023 21.80299805 96.10374023 21.28320312 97.16601562 C19.05092408 101.55964148 16.6670892 104.70539972 13 108 C6.77567705 97.9469698 1.70780338 88.579712 -1 77 C-1.66 77 -2.32 77 -3 77 C-3.69166686 79.07500059 -4.3825768 81.15025566 -5.0703125 83.2265625 C-5.71943882 85.16303177 -6.38198745 87.09503068 -7.0546875 89.0234375 C-14.19791231 109.72314735 -10.56653068 129.15068306 -1.28515625 148.65234375 C5.13480542 161.61996065 14.22544524 172.41323295 24 183 C22.44997253 186.88397689 19.99523379 189.02979619 16.875 191.75 C15.96492187 192.54921875 15.05484375 193.3484375 14.1171875 194.171875 C13.41851562 194.77515625 12.71984375 195.3784375 12 196 C-2.08221174 190.07728007 -13.82284252 167.96719126 -21 155 C-21.639375 153.85789062 -22.27875 152.71578125 -22.9375 151.5390625 C-26.31836624 145.17079289 -28.87390263 138.89503564 -30.9375 132 C-31.25509277 130.94063232 -31.25509277 130.94063232 -31.57910156 129.85986328 C-32.71252398 125.81178816 -33.21646182 122.19804749 -33 118 C-33.66 118 -34.32 118 -35 118 C-35.495 119.485 -35.495 119.485 -36 121 C-37.56640625 122.5078125 -37.56640625 122.5078125 -39.5625 124.125 C-52.0004819 134.80833802 -60.596886 148.37976631 -62.19189453 164.99951172 C-62.95016282 175.47977777 -61.55301139 184.50005914 -58.19140625 194.42578125 C-57.23177676 197.30466972 -56.50214405 200.01599452 -56 203 C-55.34 203 -54.68 203 -54 203 C-53.90847656 201.83210937 -53.81695312 200.66421875 -53.72265625 199.4609375 C-53.15331297 194.95966006 -51.64303845 191.55062999 -49.4375 187.625 C-49.08107422 186.976521 -48.72464844 186.32804199 -48.35742188 185.65991211 C-43.41295995 176.90174065 -36.87610084 168.33728282 -29 162 C-27.68 161.67 -26.36 161.34 -25 161 C-22.03 165.95 -19.06 170.9 -16 176 C-20 181 -20 181 -22.4609375 182.90625 C-30.62747716 189.64050424 -35.70102431 200.67956678 -37 211 C-37.3714418 216.20746836 -37.11584051 220.89772926 -36 226 C-38.72295566 227.20386463 -41.45184137 228.38815758 -44.1875 229.5625 C-44.95642578 229.90474609 -45.72535156 230.24699219 -46.51757812 230.59960938 C-49.78819806 231.98927192 -52.26048756 233.01422139 -55.84375 232.9453125 C-64.97283903 228.94306695 -71.10713861 213.76409643 -74.76953125 204.82421875 C-77.30525926 198.31287697 -79.38620876 191.80205468 -81 185 C-81.46148437 185.49628906 -81.92296875 185.99257813 -82.3984375 186.50390625 C-91.29453981 195.76921438 -101.45206189 201.64242294 -113 207 C-114.11375 207.52980469 -114.11375 207.52980469 -115.25 208.0703125 C-120.93569835 210.51042471 -126.87796898 210.70410183 -133 211 C-133.33 209.35 -133.66 207.7 -134 206 C-130.19531733 203.59295586 -126.39065596 201.21262526 -122.48046875 198.98046875 C-101.59090051 186.97077732 -87.64260062 169.24910218 -81 146 C-81.76699219 146.35191406 -82.53398437 146.70382812 -83.32421875 147.06640625 C-97.57374813 153.40504708 -112.27909585 158.27498619 -127.4375 161.9375 C-128.30705322 162.14898682 -129.17660645 162.36047363 -130.07250977 162.57836914 C-134.46883272 163.59337015 -138.45438257 164.24391118 -143 164 C-142.53763433 157.21863682 -140.58240676 150.79967307 -137 145 C-134.2339168 142.98773677 -131.32209804 142.6310634 -128 142 C-125.38508513 141.29673581 -122.78576111 140.57234066 -120.1875 139.8125 C-119.1044458 139.49901611 -119.1044458 139.49901611 -117.99951172 139.17919922 C-83.98012854 129.07843224 -53.59642881 109.92279734 -35 79 C-34.46004395 78.13858398 -34.46004395 78.13858398 -33.90917969 77.25976562 C-25.71953081 64.00704061 -21.02577584 49.37520231 -16.17333984 34.66699219 C-7.86514443 9.70924911 -7.86514443 9.70924911 0 0 Z " fill="#030303" transform="translate(482,630)"/>
<path d="M0 0 C1.04091797 0.00064453 2.08183594 0.00128906 3.15429688 0.00195312 C8.47442934 0.03235388 13.57156329 0.2608846 18.8125 1.1875 C18.12849125 19.99774062 7.77338215 37.17914209 -5.1875 50.1875 C-5.72632813 50.74953125 -6.26515625 51.3115625 -6.8203125 51.890625 C-20.89254066 65.32642073 -39.8346908 66.72491005 -58.1875 67.1875 C-58.69410156 68.61642578 -58.69410156 68.61642578 -59.2109375 70.07421875 C-59.66140696 71.3411641 -60.11193067 72.60809016 -60.5625 73.875 C-61.22378906 75.73705078 -61.22378906 75.73705078 -61.8984375 77.63671875 C-62.94253909 80.51274403 -64.02899255 83.3561944 -65.1875 86.1875 C-64.53394531 86.02378906 -63.88039063 85.86007812 -63.20703125 85.69140625 C-59.41758226 85.05901437 -55.70259049 85.08053291 -51.875 85.125 C-51.13443359 85.12951172 -50.39386719 85.13402344 -49.63085938 85.13867188 C-47.81637101 85.15037825 -46.00192466 85.16831102 -44.1875 85.1875 C-44.0625 87.5625 -44.0625 87.5625 -44.1875 90.1875 C-46.75865448 92.75865448 -48.50729676 92.77249796 -52.0625 93.4375 C-64.63530506 96.25601894 -73.13559229 102.46369485 -82.56396484 110.77050781 C-92.30694313 119.27400345 -102.61304876 125.44879004 -114.1875 131.1875 C-111.54518893 133.82981107 -108.44203367 135.18657239 -105.125 136.8125 C-104.05958984 137.33710815 -104.05958984 137.33710815 -102.97265625 137.87231445 C-101.46973578 138.60976721 -99.96563524 139.34481917 -98.46044922 140.07763672 C-96.27151812 141.14647461 -94.09082916 142.23084646 -91.91015625 143.31640625 C-79.05348729 149.63115542 -65.52196767 155.34259734 -51 155.3125 C-50.33943604 155.31419189 -49.67887207 155.31588379 -48.99829102 155.31762695 C-45.12644719 155.30019258 -41.44329584 154.98430253 -37.625 154.375 C-34.91394024 154.03102581 -33.66636134 153.92928101 -31.24609375 155.234375 C-29.5625 156.625 -29.5625 156.625 -27.1875 159.1875 C-27.5175 160.1775 -27.8475 161.1675 -28.1875 162.1875 C-43.05044613 169.03498982 -63.60839038 168.01394798 -79.1875 164.1875 C-78.78917969 164.99832031 -78.39085937 165.80914062 -77.98046875 166.64453125 C-68.95247597 185.51325582 -68.95247597 185.51325582 -71.1875 192.1875 C-72.8375 192.5175 -74.4875 192.8475 -76.1875 193.1875 C-76.73277344 192.08792969 -77.27804687 190.98835937 -77.83984375 189.85546875 C-88.1882654 169.39049687 -100.60152819 157.89376851 -122.4140625 150.359375 C-143.36382441 143.85323776 -165.40522109 144.39005199 -185.1875 154.1875 C-186.23292969 154.67992187 -187.27835938 155.17234375 -188.35546875 155.6796875 C-206.7694598 164.87568303 -218.07719244 179.02547207 -227.1875 197.1875 C-227.8475 196.8575 -228.5075 196.5275 -229.1875 196.1875 C-229.85264593 193.811115 -230.41586767 191.470763 -230.9375 189.0625 C-233.12028019 179.66645448 -236.20181719 170.51764515 -240.93359375 162.0703125 C-242.1875 159.1875 -242.1875 159.1875 -242.16796875 156.640625 C-236.79845581 143.20614641 -216.58356907 133.52232019 -204.1875 128.1875 C-187.19377087 121.56730142 -169.76634247 119.63461255 -151.75097656 118.03344727 C-125.51559408 115.66973312 -101.00784467 108.97790211 -83.1875 88.1875 C-75.31323455 77.64614463 -70.24289038 65.56980939 -68.375 52.5625 C-65.77191061 36.64589998 -57.53032668 23.48616768 -45.1875 13.1875 C-31.25471136 3.54906402 -16.75552237 -0.1993456 0 0 Z " fill="#030303" transform="translate(815.1875,312.8125)"/>
<path d="M0 0 C-2.34098936 3.05772399 -4.57602941 5.5956311 -7.625 7.9375 C-23.52236001 21.61455834 -33.13939122 44.51033296 -35 65 C-35.93736823 81.67567145 -33.66769263 96.2360128 -28 112 C-27.32912724 113.99859305 -26.66137335 115.99824334 -26 118 C-29.5774954 116.67523731 -32.65203649 115.08802373 -35.8515625 113.015625 C-36.77590088 112.4172583 -37.70023926 111.8188916 -38.65258789 111.20239258 C-40.12393188 110.23595825 -40.12393188 110.23595825 -41.625 109.25 C-42.64392334 108.58186279 -43.66284668 107.91372559 -44.71264648 107.2253418 C-59.59130761 97.38695603 -73.65198061 86.82603029 -87 75 C-88.62477118 73.60390032 -90.24973042 72.20801943 -91.875 70.8125 C-92.93762319 69.89882191 -93.98884574 68.97033126 -95 68 C-95 67.67 -95 67.34 -95 67 C-94.35160156 67.0721875 -93.70320313 67.144375 -93.03515625 67.21875 C-76.49805623 68.78336393 -59.52505543 68.65546172 -43 67 C-42.92652344 65.93072266 -42.92652344 65.93072266 -42.8515625 64.83984375 C-42.41871477 59.29491509 -41.75971184 54.27913551 -40 49 C-40.60585938 49.13277344 -41.21171875 49.26554688 -41.8359375 49.40234375 C-68.5829665 55.03979448 -98.11174599 52.64921858 -122.25 39.1875 C-130.34485945 32.74840726 -136.46898169 24.82036591 -142.71777344 16.66259766 C-145.05461883 13.63252966 -147.4603269 10.65598616 -149.85546875 7.671875 C-151 6 -151 6 -151 4 C-145.39240766 5.78965713 -140.04215972 8.05581095 -134.6328125 10.3671875 C-121.67829423 15.19996116 -109.72475709 16.56340462 -96 16.25 C-94.43491926 16.2298599 -92.86981284 16.21162268 -91.3046875 16.1953125 C-87.5358027 16.15201189 -83.76820126 16.08342407 -80 16 C-81.31670781 18.66078539 -82.67951435 21.28828399 -84.09375 23.8984375 C-84.48433594 24.62546875 -84.87492187 25.3525 -85.27734375 26.1015625 C-86.08919083 27.6111312 -86.90427262 29.11896495 -87.72265625 30.625 C-88.11324219 31.35460937 -88.50382812 32.08421875 -88.90625 32.8359375 C-89.26009766 33.49126465 -89.61394531 34.1465918 -89.97851562 34.82177734 C-91.21243309 37.45299427 -92.08098668 40.24296004 -93 43 C-88.05 43.33 -83.1 43.66 -78 44 C-77.34 42.35 -76.68 40.7 -76 39 C-65.1132964 19.36774503 -49.42729373 8.01479269 -28.171875 1.8984375 C-18.75506151 -0.24539025 -9.59135217 -0.31697247 0 0 Z " fill="#FAFAFA" transform="translate(348,732)"/>
<path d="M0 0 C0.70655817 11.54045015 -2.40785858 23.47437001 -7 34 C-7.38542969 34.89074219 -7.77085937 35.78148437 -8.16796875 36.69921875 C-15.65832017 52.09727256 -28.32554959 60.1846641 -43.85058594 66.08300781 C-47.09769045 67.02844382 -49.68366846 67.23006527 -53.0546875 67.1953125 C-54.71757813 67.18564453 -54.71757813 67.18564453 -56.4140625 67.17578125 C-58.12722656 67.15064453 -58.12722656 67.15064453 -59.875 67.125 C-61.0403125 67.11597656 -62.205625 67.10695313 -63.40625 67.09765625 C-66.27104577 67.07417432 -69.13541535 67.04133141 -72 67 C-72.81810708 49.50159861 -69.40237681 34.39581694 -57.75 20.75 C-42.07161802 4.14936025 -22.05875542 -0.34111477 0 0 Z " fill="#020202" transform="translate(768,232)"/>
<path d="M0 0 C19.9813259 -1.02177235 38.2199555 4.26014333 53.59375 17.1796875 C60.52985258 23.55170945 64.40619801 30.41480636 68 39 C68.3609375 39.81984375 68.721875 40.6396875 69.09375 41.484375 C72.11088897 49.58595186 71.25012255 58.49583345 71 67 C50.75219483 67.67466735 35.78069757 66.38549401 19.8125 52.75 C7.43737483 41.131348 0.67725274 25.39782594 -0.1796875 8.4453125 C-0.18632997 5.62226446 -0.13941304 2.81924139 0 0 Z " fill="#020202" transform="translate(257,232)"/>
<path d="M0 0 C3.48452731 2.50903543 6.78847784 5.15106905 10 8 C9.29113328 14.27853381 2.60264012 18.26589403 -2 22 C-5.22184277 24.25290339 -8.51070788 26.19263791 -12 28 C-12.72703125 28.37769531 -13.4540625 28.75539063 -14.203125 29.14453125 C-27.84419488 35.69518891 -42.50093698 37.32021484 -56.90625 32.3203125 C-66.31186444 28.30630028 -73.66998776 22.01200737 -81 15 C-79.65161692 7.95253965 -72.40259344 2.3806319 -67 -2 C-45.65534616 -16.28171623 -21.1229476 -12.65348242 0 0 Z " fill="#030303" transform="translate(871,445)"/>
<path d="M0 0 C5.56811219 4.43858086 10.78582587 9.24062868 15 15 C15 15.66 15 16.32 15 17 C14.34 17 13.68 17 13 17 C13 17.66 13 18.32 13 19 C1.28092614 30.53452152 -12.78501829 36.742272 -29.125 37.3125 C-46.37196533 37.09568101 -61.10476037 27.85068817 -73 16 C-74.12535156 14.94039063 -74.12535156 14.94039063 -75.2734375 13.859375 C-77 12 -77 12 -77 10 C-55.8113269 -9.05428296 -24.87153931 -16.7991976 0 0 Z " fill="#030303" transform="translate(220,443)"/>
<path d="M0 0 C-1.5335705 8.57663501 -11.4638874 15.95064262 -18 21 C-29.49443932 28.15486074 -42.7299416 32.11183575 -56.19140625 29.34375 C-65.72095236 26.73353194 -73.20580219 21.9221503 -81 16 C-77.0736017 5.16921047 -67.79400637 -3.95803047 -57.5 -8.875 C-37.59988219 -17.0724133 -17.08709909 -12.38195586 0 0 Z " fill="#040404" transform="translate(861,395)"/>
<path d="M0 0 C6.27107477 4.7615592 12.85312335 10.70624671 16.41796875 17.8359375 C16.3359375 19.75 16.3359375 19.75 15.41796875 21.8359375 C4.86493648 30.87130961 -7.74316669 35.28174223 -21.51953125 35.11328125 C-37.96570431 33.62389568 -50.91135977 23.66151399 -61.48828125 11.67578125 C-62.89453125 9.8359375 -62.89453125 9.8359375 -64.58203125 6.8359375 C-62.89419834 1.77243876 -58.17851969 0.14575978 -53.58203125 -2.1640625 C-35.16610256 -9.65427211 -17.42514716 -11.19984989 0 0 Z " fill="#030303" transform="translate(227.58203125,390.1640625)"/>
<path d="M0 0 C0.73605469 0.00451172 1.47210938 0.00902344 2.23046875 0.01367188 C4.02868158 0.02534858 5.82685197 0.04327989 7.625 0.0625 C8.37500178 17.45837473 5.61232379 30.47697991 -6.375 43.6875 C-16.84255603 53.70070468 -32.93245223 59.25130276 -47.375 59.3125 C-48.70952056 59.25104182 -50.04403946 59.17767928 -51.375 59.0625 C-52.5269358 42.16744164 -47.59420634 27.85213293 -37.0625 14.6875 C-27.40330508 4.27199228 -13.80142445 -0.16222289 0 0 Z " fill="#030303" transform="translate(253.375,489.9375)"/>
<path d="M0 0 C16.92178216 -0.36965058 31.14880404 2.00338541 44.1328125 13.96484375 C55.47178535 25.88585513 59.44063752 40.09716968 59.10546875 56.10546875 C59.07066406 57.06066406 59.03585937 58.01585937 59 59 C42.66658774 59.30783593 28.11198318 55.39224534 15.5 44.625 C5.93794511 35.34510411 0.2622947 23.79932987 -0.09765625 10.3515625 C-0.08605469 9.12179687 -0.07445312 7.89203125 -0.0625 6.625 C-0.05347656 5.37976563 -0.04445313 4.13453125 -0.03515625 2.8515625 C-0.02355469 1.91054688 -0.01195312 0.96953125 0 0 Z " fill="#030303" transform="translate(763,490)"/>
<path d="M0 0 C7.07240187 2.59802518 11.47252952 11.88396021 14.66015625 18.38671875 C19.97374043 30.9813075 21.28581321 44.34585286 16.28125 57.33984375 C14.25978731 61.53684402 11.77255271 65.26893622 9 69 C8.34 69.99 7.68 70.98 7 72 C6.34 72 5.68 72 5 72 C4.773125 72.598125 4.54625 73.19625 4.3125 73.8125 C2.66188867 76.56351888 0.8027919 77.52484637 -2 79 C-11.91440772 69.87757159 -18.85173371 59.05274635 -20.4140625 45.375 C-20.8089597 29.00471588 -14.67806581 16.10039266 -4 4 C-2.67935873 2.65409429 -1.34976468 1.31669695 0 0 Z " fill="#030303" transform="translate(586,134)"/>
<path d="M0 0 C4.39814578 0.43576099 6.15364597 3.04433184 8.875 6.3125 C19.35410931 19.09886534 23.59558862 32.60746938 22 49 C19.69250355 60.73092506 12.9243413 70.30255223 5 79 C-5.02295388 74.51078341 -11.17472488 64.0732065 -15.1015625 54.2421875 C-19.47316766 40.2285373 -16.83843384 27.05260186 -10.1875 14.25 C-7.24860165 9.13135607 -3.77728004 4.52603081 0 0 Z " fill="#030303" transform="translate(436,134)"/>
<path d="M0 0 C9.28696209 1.4046117 18.17090555 8.10417237 23.87890625 15.40234375 C30.96764642 25.71727465 33.59359827 36.93708739 31.42578125 49.265625 C30.15783141 55.14247188 28.63962354 60.59505657 26 66 C15.20339336 63.23163932 5.18926002 54.65583368 -0.671875 45.34375 C-6.61857941 33.73018609 -7.95103707 22.46126434 -4.125 9.8125 C-2.96599027 6.39986023 -1.68745597 3.18488312 0 0 Z " fill="#040404" transform="translate(686,473)"/>
<path d="M0 0 C2.70623152 1.32492585 3.05098068 2.87700116 4.0625 5.66796875 C4.54783203 6.95960938 4.54783203 6.95960938 5.04296875 8.27734375 C8.60041347 19.56763778 8.28520312 32.33352153 2.875 42.91796875 C-2.95506504 53.76295296 -11.98865493 60.8923361 -23.125 65.91796875 C-23.785 65.91796875 -24.445 65.91796875 -25.125 65.91796875 C-25.77865399 64.37960167 -26.42253603 62.83708109 -27.0625 61.29296875 C-27.42214844 60.43445313 -27.78179687 59.5759375 -28.15234375 58.69140625 C-31.52008721 49.08860362 -32.10802924 34.82692827 -28.5 25.23046875 C-23.85991556 15.90179725 -11.68415801 -0.45104286 0 0 Z " fill="#030303" transform="translate(337.125,473.08203125)"/>
<path d="M0 0 C1.38445313 0.00773438 1.38445313 0.00773438 2.796875 0.015625 C6.7498551 0.06145665 10.3047178 0.16160673 14.125 1.25 C13.08636657 13.45394285 6.03158004 24.13504156 -2.67578125 32.4609375 C-11.48861603 39.63017077 -22.67440188 42.39325632 -33.875 41.25 C-37.60448704 40.43121668 -41.23860503 39.41143413 -44.875 38.25 C-45.46863202 28.73977268 -40.45362581 20.02974832 -34.5625 12.75 C-25.17863014 2.96815352 -13.17701797 -0.30205199 0 0 Z " fill="#040404" transform="translate(680.875,245.75)"/>
<path d="M0 0 C1.0725 0.5775 2.145 1.155 3.25 1.75 C11.85896647 8.79369984 19.41008457 18.41195594 20.875 29.75 C20.91625 30.8225 20.9575 31.895 21 33 C8.86079175 37.08694787 -2.30970514 37.738224 -14 32 C-25.69019775 25.66780955 -32.06015089 16.06274767 -37 4 C-37.6921908 1.19027876 -37.94195199 -1.09759933 -38 -4 C-25.84567289 -7.45023809 -10.86257764 -6.44263226 0 0 Z " fill="#030303" transform="translate(368,251)"/>
<path d="M0 0 C8.0146115 1.38570386 14.71909774 8.1428139 19.4375 14.375 C20.66569574 16.22359852 21.85654067 18.09782177 23 20 C23.68255859 21.13501953 23.68255859 21.13501953 24.37890625 22.29296875 C28.56589391 30.76906571 28.48497659 42.11804393 26.19921875 51.171875 C25.26453741 53.55368846 24.22695502 55.757179 23 58 C22.41564124 59.20783776 21.83216461 60.41610315 21.25 61.625 C20.8375 62.40875 20.425 63.1925 20 64 C11.8337315 63.59168657 6.66180604 57.89314728 1.25 52.3125 C-7.41508162 42.18078971 -8.17043877 31.27402477 -7.29248047 18.38818359 C-6.46798032 11.65591277 -3.74091073 5.61136609 0 0 Z " fill="#030303" transform="translate(498,277)"/>
<path d="M0 0 C10.22504875 3.51144912 17.21040505 12.6721591 22 22 C25.94610263 30.98932796 25.05660728 42.11204029 21.6875 51.0625 C20.06896412 54.91685122 18.21688971 58.45687715 16 62 C8.33859002 61.03037414 2.34996963 55.00654657 -2.375 49.1875 C-8.32270324 40.50250153 -10.20474624 31.40462663 -9 21 C-7.32344237 13.11928259 -4.63821638 6.57080653 0 0 Z " fill="#040404" transform="translate(431,223)"/>
<path d="M0 0 C9.45595597 0.42026471 18.66755354 6.11207578 25 13 C32.63589012 22.85625533 35.95375005 32.50587431 35 45 C34.19338717 49.06120182 33.16465457 53.02769603 32 57 C20.32456176 55.55920124 12.50251269 50.49610145 4.9140625 41.59375 C-2.54530995 31.48553917 -3.17933496 19.8193745 -1.55078125 7.640625 C-1.08300985 5.07949365 -0.58007908 2.53784599 0 0 Z " fill="#040404" transform="translate(299,356)"/>
<path d="M0 0 C6.03733201 12.45437043 10.69083134 23.4048516 7.125 37.4453125 C3.47988458 47.78113319 -3.20164318 56.65708824 -13 62 C-15.07421875 61.9921875 -15.07421875 61.9921875 -17 61 C-23.69399882 52.17609247 -26.29932104 40.92762313 -25 30 C-22.21506634 17.87320026 -14.82174441 8.90117812 -5.19921875 1.36328125 C-3 0 -3 0 0 0 Z " fill="#040404" transform="translate(594,223)"/>
<path d="M0 0 C3.69067612 11.05726566 3.67078639 24.57546409 -0.6875 35.42578125 C-5.88570616 45.6210725 -13.91655452 51.74700133 -24.5 55.9375 C-28 57 -28 57 -31 57 C-35.28306754 47.36309803 -36.04183047 34.57090608 -32.5625 24.5 C-27.93215753 14.9416502 -19.29173253 7.43302918 -9.9375 2.75 C-8.91527344 2.22921875 -7.89304687 1.7084375 -6.83984375 1.171875 C-4 0 -4 0 0 0 Z " fill="#030303" transform="translate(725,356)"/>
<path d="M0 0 C-0.47992145 6.05647352 -1.7849336 10.61466904 -4.5625 16 C-4.92255127 16.69915527 -5.28260254 17.39831055 -5.65356445 18.11865234 C-11.3710373 28.80074136 -18.63836544 33.79575879 -30 38 C-37.85909306 39.96477326 -45.30937716 39.27870306 -53 37 C-52.82317155 26.74394978 -48.16486063 16.92539921 -41.1875 9.4375 C-31.91379565 1.09295293 -12.08401332 -6.04200666 0 0 Z " fill="#050505" transform="translate(755,307)"/>
<path d="M0 0 C24.34633315 -0.83764015 24.34633315 -0.83764015 33 4 C33.804375 4.43570312 34.60875 4.87140625 35.4375 5.3203125 C44.93727962 11.03892984 49.70604446 19.57627057 53 30 C53.33475542 32.52125916 53.28857919 34.46050315 53 37 C46.47515987 40.26242007 34.67841701 39.14579747 27.76904297 37.45361328 C15.55393961 33.16230582 8.83829113 24.43023741 3.2265625 13.28515625 C1.60591863 8.94451454 0.79632581 4.55437542 0 0 Z " fill="#030303" transform="translate(269,307)"/>
<path d="M0 0 C9.81328183 1.74106613 19.24308075 5.36748974 26 13 C31.07145408 20.28509108 34.28787936 26.37735935 34.1875 35.375 C34.18105469 36.64085937 34.17460937 37.90671875 34.16796875 39.2109375 C34.00460009 42.89623047 33.58714941 46.36437083 33 50 C23.76461333 49.32833551 14.54011665 46.01853754 8.18359375 38.9921875 C1.2693001 30.47562538 -1.14899449 22.96296853 -1.125 11.9375 C-1.12757813 10.75027344 -1.13015625 9.56304687 -1.1328125 8.33984375 C-1.01692665 5.42565555 -0.67386177 2.82914983 0 0 Z " fill="#040404" transform="translate(313,184)"/>
<path d="M0 0 C2.97269 8.91807001 2.17060325 22.56471974 -2 31 C-7.4932847 40.22205976 -14.76522626 45.87724955 -25 49 C-27.36147146 49.50002688 -29.58988091 49.79042443 -32 50 C-35.12357442 41.80061715 -35.43967331 32.06621325 -32.5625 23.75 C-27.33396297 12.59578768 -17.75206476 5.57213471 -6.5625 1.125 C-3 0 -3 0 0 0 Z " fill="#040404" transform="translate(711,184)"/>
<path d="M0 0 C11.95388797 0.77121858 21.84833035 5.01226166 30 14 C37.91917263 23.3761124 38.79301539 33.04376793 38 45 C37.67 45.33 37.34 45.66 37 46 C27.07396723 45.51970809 18.0772232 42.9813329 10.78125 35.984375 C0.58260184 24.6227231 -0.44745172 14.5836117 0 0 Z " fill="#060606" transform="translate(220,265)"/>
<path d="M0 0 C0.54630275 13.93072025 0.10814492 23.87936694 -9.15234375 35.02734375 C-14.75154543 41.00534977 -21.53174706 44.64868766 -29.796875 45.1796875 C-32.20669247 45.18649489 -34.59436359 45.13559955 -37 45 C-37.52877016 32.33889229 -37.38756539 23.09070053 -29.125 12.8125 C-21.58257077 4.85592741 -10.99508275 -0.24988824 0 0 Z " fill="#040404" transform="translate(804,265)"/>
<path d="M0 0 C3.55742419 2.79545291 6.82672847 5.77758489 10 9 C7.40316615 15.67117662 -0.59672826 20.21006044 -6.9375 23 C-14.91990899 25.49756355 -23.08446388 24.68859515 -30.6171875 21.2734375 C-36.51271592 18.12271248 -41.88139073 14.29302713 -47 10 C-44.26165472 3.21366604 -36.56241232 -0.50566635 -30.1875 -3.4375 C-19.75155803 -7.19378584 -9.41915126 -5.59781309 0 0 Z " fill="#060606" transform="translate(281,429)"/>
<path d="M0 0 C3.70665337 1.80058975 4.52278676 5.48142074 5.92578125 9.1484375 C8.38797391 18.50476961 8.55655493 28.58962201 4.484375 37.49609375 C1.1725427 43.16003498 -3.11264295 47.68133549 -8.078125 51.93359375 C-8.74585938 52.53042969 -9.41359375 53.12726562 -10.1015625 53.7421875 C-12.078125 54.93359375 -12.078125 54.93359375 -14.16015625 55.01171875 C-17.19379044 53.30645798 -17.62436085 50.89497425 -18.765625 47.68359375 C-19.18199219 46.5440625 -19.59835937 45.40453125 -20.02734375 44.23046875 C-22.61763444 36.10331134 -23.79849434 27.08807575 -20.328125 19.05859375 C-19.60773947 17.66784946 -18.85987291 16.29079499 -18.078125 14.93359375 C-17.500625 13.90234375 -16.923125 12.87109375 -16.328125 11.80859375 C-12.61457341 7.06350005 -6.57512312 -0.21010732 0 0 Z " fill="#040404" transform="translate(283.078125,516.06640625)"/>
<path d="M0 0 C7.36615628 0.69593046 11.14300106 4.71791526 16 10 C22.78822758 19.49259189 24.44711103 28.5141715 23 40 C21.74225899 44.96221653 19.7175556 49.66249033 17 54 C15.515 54.495 15.515 54.495 14 55 C4.88426351 49.72155449 -2.33950623 41.23146058 -5.58203125 31.19921875 C-7.62012415 20.47542151 -5.9910544 11.60573421 -1 2 C-0.67 1.34 -0.34 0.68 0 0 Z " fill="#040404" transform="translate(740,516)"/>
<path d="M0 0 C3.28343883 2.040195 6.45803541 4.06393237 9 7 C9 11 9 11 7.3125 12.78125 C2.40925302 16.42555519 -2.37317869 19.59712995 -8 22 C-8.928125 22.4125 -9.85625 22.825 -10.8125 23.25 C-20.40380984 25.50677878 -28.47707567 23.86199342 -37 19 C-40.22078372 16.53194902 -43.15731225 13.89293728 -46 11 C-45.49321623 6.9457298 -43.63171191 5.47443904 -40.5 3 C-27.3728732 -6.95210744 -14.84007295 -7.6396772 0 0 Z " fill="#040404" transform="translate(780,429)"/>
<path d="M0 0 C2.68652846 8.68285998 1.92843564 19.77399818 -1.9296875 27.9765625 C-6.12333955 35.46729271 -12.77869467 41.99925716 -21.0703125 44.61328125 C-24.11850284 45.2241534 -26.90036245 45.19372735 -30 45 C-32.26399185 34.98978811 -32.10778283 25.79050729 -26.953125 16.7578125 C-20.90675263 8.22033471 -10.99437086 0 0 0 Z " fill="#050505" transform="translate(677,377)"/>
<path d="M0 0 C10.66846595 2.58767046 18.85679039 6.65905942 25.52734375 15.55859375 C29.13844737 21.54517137 30.45585803 26.33628735 30.25 33.1875 C30.24484375 33.88552734 30.2396875 34.58355469 30.234375 35.30273438 C30.1832382 38.66178276 30.02914434 41.78807371 29 45 C21.78214825 45.75977387 14.88263009 42.7711991 9.25 38.375 C3.50484994 33.02465883 -0.72749522 25.97779122 -1.08837891 18.0612793 C-1.1341901 15.83138173 -1.13641797 13.60531075 -1.125 11.375 C-1.12886719 10.611875 -1.13273437 9.84875 -1.13671875 9.0625 C-1.13097136 5.78648638 -1.04287441 3.12862324 0 0 Z " fill="#040404" transform="translate(348,377)"/>
<path d="M0 0 C6.43576022 1.70358359 9.94266912 7.05335472 13.25 12.5 C17.60145295 21.20290591 18.44546687 29.38801218 15.375 38.625 C13.35494723 43.73326293 10.56775976 47.84950614 7 52 C-0.47773132 48.58020602 -5.00843265 42.58770208 -8.1171875 35.09375 C-10.80984418 25.65753722 -9.61585489 16.55334133 -5 8 C-3.42346214 5.2667389 -1.77699138 2.60722506 0 0 Z " fill="#060606" transform="translate(467,193)"/>
<path d="M0 0 C3.7240272 1.2413424 4.11982648 2.36359057 6.0625 5.6875 C6.56910156 6.53699219 7.07570313 7.38648438 7.59765625 8.26171875 C11.87892961 16.62153108 12.3434884 25.72471873 10.3828125 34.8828125 C8.10664537 41.30845245 4.04276385 46.45426421 -1 51 C-2.485 51.495 -2.485 51.495 -4 52 C-11.59559046 43.56045504 -14.68609392 35.4250367 -14.40234375 24 C-13.77224789 14.61807442 -8.23229501 7.49492349 -1.5390625 1.328125 C-0.77722656 0.67070312 -0.77722656 0.67070312 0 0 Z " fill="#040404" transform="translate(555,193)"/>
<path d="M0 0 C0.64302244 11.39578651 -0.95386331 20.1657104 -8.15625 29.2421875 C-14.57606324 35.36277215 -22.43648215 37.16468304 -31 37 C-31.51771298 26.08488466 -31.09496413 18.18449776 -24.375 9.25 C-18.58248916 2.91352241 -8.43379778 -1.94952109 0 0 Z " fill="#050505" transform="translate(675,300)"/>
<path d="M0 0 C9.90991769 1.23722351 18.38065648 4.2038843 25 12 C28.96495944 18.48990873 31.13809947 24.05195402 31.0625 31.6875 C31.05347656 32.86699219 31.04445313 34.04648437 31.03515625 35.26171875 C31.02355469 36.16535156 31.01195312 37.06898438 31 38 C21.99289085 38.57187995 15.87706649 36.50008848 8.75 30.9375 C3.12980736 25.60955738 0.0486613 19.50818063 -0.30078125 11.734375 C-0.35957297 7.81218886 -0.22108563 3.91567213 0 0 Z " fill="#050606" transform="translate(350,299)"/>
<path d="M0 0 C1.8984375 0.82421875 1.8984375 0.82421875 4.4609375 2.32421875 C2.22553295 10.79522546 -1.19936301 17.43268819 -8.7265625 22.26171875 C-14.03246508 25.34897962 -18.42414645 25.50695729 -24.4140625 25.51171875 C-25.21714844 25.52396484 -26.02023438 25.53621094 -26.84765625 25.54882812 C-31.20131899 25.55958676 -34.5740524 25.35488182 -38.5390625 23.32421875 C-37.6700149 15.85040941 -34.02954091 10.18699768 -28.21484375 5.41796875 C-26.03033574 3.94477987 -23.84994772 2.58858479 -21.5390625 1.32421875 C-20.641875 0.76154297 -20.641875 0.76154297 -19.7265625 0.1875 C-14.15794819 -2.01011386 -5.76710537 -1.53493728 0 0 Z " fill="#050505" transform="translate(202.5390625,490.67578125)"/>
<path d="M0 0 C7.08238486 4.80700217 10.75116915 10.92173666 13.69921875 18.83203125 C6.88394097 23.37554977 -2.39162368 22.38789574 -10.30078125 21.83203125 C-17.30945407 20.06924384 -22.75129455 14.68556574 -26.66015625 8.77734375 C-28.45430316 5.52084422 -29.36419836 3.59303652 -29.05078125 -0.16796875 C-28.80328125 -0.82796875 -28.55578125 -1.48796875 -28.30078125 -2.16796875 C-18.28093 -5.81155102 -9.33505795 -5.21054868 0 0 Z " fill="#040404" transform="translate(847.30078125,494.16796875)"/>
<path d="M0 0 C5.24452539 4.64515106 9.22309082 9.80237129 10.5234375 16.828125 C11.00844221 25.65059163 7.86031967 32.93268011 2.55078125 39.90234375 C1 41 1 41 -0.98828125 40.95703125 C-3.66383172 39.68419656 -4.60400432 38.17468731 -6.1875 35.6875 C-6.69667969 34.90761719 -7.20585938 34.12773437 -7.73046875 33.32421875 C-10.67422394 27.93488233 -10.70802398 22.00627083 -10 16 C-7.8651946 9.80817852 -4.40623887 4.78391649 0 0 Z " fill="#060606" transform="translate(552,124)"/>
<path d="M0 0 C6.15575131 4.43786722 9.60047237 9.80141712 12 17 C13.12909252 25.7907918 10.4723587 32.23465528 5.33203125 39.2890625 C4.89246094 39.85367188 4.45289063 40.41828125 4 41 C1.41058145 40.61887346 0.22142294 40.22672014 -1.6328125 38.328125 C-2.12523437 37.64234375 -2.61765625 36.9565625 -3.125 36.25 C-3.62257813 35.57453125 -4.12015625 34.8990625 -4.6328125 34.203125 C-8.64206592 27.74249949 -8.8637629 21.44563621 -8 14 C-6.17474509 8.7348416 -3.3918993 4.38659118 0 0 Z " fill="#070707" transform="translate(471,124)"/>
<path d="M0 0 C5.71022093 4.11004386 10.5921436 9.43015709 12.03515625 16.46484375 C6.38085242 20.23437964 0.67571488 20.23476359 -5.96484375 19.46484375 C-13.60278526 17.29365225 -19.38513826 11.38199532 -23.40234375 4.71484375 C-24.96484375 1.46484375 -24.96484375 1.46484375 -24.96484375 -1.53515625 C-17.12827385 -3.91515155 -7.3134494 -3.84126968 0 0 Z " fill="#060606" transform="translate(191.96484375,353.53515625)"/>
<path d="M0 0 C1.20785156 0.00644531 2.41570313 0.01289063 3.66015625 0.01953125 C6.28808061 0.15421629 8.44398479 0.4102197 10.9375 1.1875 C10.66771919 7.66223951 8.49439353 11.5934831 3.9375 16.1875 C-2.16709998 21.29454545 -7.4164499 22.93987372 -15.34375 22.53125 C-18.44411537 22.13924978 -21.20249056 21.45861531 -24.0625 20.1875 C-23.33874932 12.58811789 -19.50275691 8.28442708 -13.94140625 3.484375 C-9.38251548 0.33769779 -5.47877023 -0.06445612 0 0 Z " fill="#060606" transform="translate(845.0625,350.8125)"/>
<path d="M0 0 C6.95386113 2.10723064 11.52477175 6.59093949 14.9375 12.875 C18.23783934 20.16188784 17.43079447 25.69431872 14.75390625 33.1171875 C14 35 14 35 13 37 C7.11473284 36.18118022 3.89854288 33.33804458 0 29 C-3.9478529 23.05072864 -4.94217412 17.02248383 -4 10 C-2.00400802 2.00400802 -2.00400802 2.00400802 0 0 Z " fill="#070707" transform="translate(394,141)"/>
<path d="M0 0 C3.84375 1.703125 3.84375 1.703125 5.25 4.375 C6.96053099 12.64256647 6.8564993 20.41998414 3 28 C-0.17909854 31.78054961 -3.74366841 34.50171842 -8 37 C-8.99 37 -9.98 37 -11 37 C-14.81092645 30.3308787 -14.88101766 23.53569474 -14 16 C-11.70923914 8.46372877 -6.33170682 4.29011072 0 0 Z " fill="#060706" transform="translate(628,141)"/>
<path d="M0 0 C7.80424157 -0.6786297 14.68328883 1.91749075 20.875 6.6875 C25.18880763 10.74635446 27.69175506 15.66489083 28.23828125 21.578125 C28.24838537 23.72019922 28.13573291 25.8622066 28 28 C20.12308591 28.57286648 14.95942229 26.33965862 8.25 22.375 C2.21293241 16.00253977 0.20133913 8.60267207 0 0 Z " fill="#080808" transform="translate(281,204)"/>
<path d="M0 0 C1.216875 0.04125 2.43375 0.0825 3.6875 0.125 C4.356804 8.42436954 2.56212137 14.54852414 -2.88671875 20.984375 C-8.02807667 25.82611999 -14.31593538 28.26971779 -21.375 28.3125 C-22.8290625 28.2196875 -22.8290625 28.2196875 -24.3125 28.125 C-24.13712765 20.63181761 -22.80129648 14.26533481 -18.3125 8.125 C-13.20779486 3.64913534 -6.96806652 -0.23620564 0 0 Z " fill="#080808" transform="translate(739.3125,203.875)"/>
<path d="M0 0 C1.17539996 0.92652701 2.34010577 1.86663387 3.5 2.8125 C4.1496875 3.33457031 4.799375 3.85664062 5.46875 4.39453125 C7 6 7 6 7 9 C5.82460004 8.07347299 4.65989423 7.13336613 3.5 6.1875 C2.52546875 5.40439453 2.52546875 5.40439453 1.53125 4.60546875 C0 3 0 3 0 0 Z " fill="#DEDDDD" transform="translate(177,699)"/>
<path d="M0 0 C5.61 0 11.22 0 17 0 C17 0.33 17 0.66 17 1 C14.89594609 1.16808419 12.79175242 1.33441948 10.6875 1.5 C9.51574219 1.5928125 8.34398437 1.685625 7.13671875 1.78125 C5.094806 1.92364989 3.0468721 2 1 2 C0.67 1.34 0.34 0.68 0 0 Z " fill="#A2A2A2" transform="translate(676,732)"/>
</svg>
