<?xml version="1.0" encoding="UTF-8"?>
<!--
  Three Tree City brand logo — mask + global-gradient build.

  v3 of the recolor pipeline: instead of `fill="url(#ttc-tree)"` on
  every path (which makes the gradient per-path-bounding-box and ends
  up with mismatched stop locations between leaves and roots), this
  version puts every silhouette path into a <mask> and draws a single
  <rect> covering the whole 1024x1024 viewBox filled with the
  gradient. That rect is masked by the tree shape, so the gradient
  is uniform across the entire silhouette.

  Source: ../threetreecity_logo2.svg
-->
<svg
  xmlns="http://www.w3.org/2000/svg"
  viewBox="0 0 1024 1024"
  version="1.1"
  role="img"
  aria-label="Three Tree City"
>
  <defs>
    <linearGradient
      id="ttc-tree"
      x1="0" y1="0"
      x2="0" y2="1024"
      gradientUnits="userSpaceOnUse"
    >
      <stop offset="0%" stop-color="#b59ce5"/>
      <stop offset="100%" stop-color="#6f4ac2"/>
    </linearGradient>
    <!-- Tree silhouette mask. White paths punch the shape out of the
         gradient rect below; light-gray paths (originally the
         antialiasing edges of the source SVG) soften the silhouette
         edge instead of hard-clipping. -->
    <mask id="ttc-tree-mask">
      <rect width="1024" height="1024" fill="black"/>
      <path d="M0 0 C15.27157484 7.88246077 25.11325036 20.7242511 30.4296875 36.9609375 C31.52893156 40.82529035 32.44599156 44.67094705 33.1640625 48.625 C36.55305867 66.91741307 46.50270735 83.2929442 61.8984375 93.92578125 C83.6136755 107.52415844 106.16552578 109.46881108 131.06640625 111.8359375 C144.72089346 113.15385055 157.01922038 115.48017796 169.5625 121.3125 C170.19091797 121.59754395 170.81933594 121.88258789 171.46679688 122.17626953 C180.9278246 126.49692764 188.77150851 131.3157358 196.5625 138.3125 C197.35914063 138.95574219 198.15578125 139.59898437 198.9765625 140.26171875 C199.70617187 140.85597656 200.43578125 141.45023438 201.1875 142.0625 C202.13496094 142.82820313 202.13496094 142.82820313 203.1015625 143.609375 C205.04708154 145.87741324 205.31593014 147.33665687 205.5625 150.3125 C205.26674572 152.65089367 204.92922257 154.98418084 204.5625 157.3125 C203.37205945 176.71082641 206.56078647 195.03435124 215.5625 212.3125 C215.87203613 212.91642578 216.18157227 213.52035156 216.50048828 214.14257812 C224.1114851 228.78792126 234.53323902 240.63071203 245.83740234 252.48583984 C249.44166615 256.3022992 252.93876906 260.21812395 256.453125 264.1171875 C258.36686647 266.35430833 258.36686647 266.35430833 260.5625 267.3125 C260.5625 267.9725 260.5625 268.6325 260.5625 269.3125 C261.5525 269.6425 262.5425 269.9725 263.5625 270.3125 C267.72161387 274.10463324 271.36092892 278.40454143 275.0859375 282.6171875 C276.99508677 284.69496825 278.93223418 286.66466871 280.94921875 288.6328125 C297.93767544 305.52531502 307.47370148 326.37813856 314.68359375 348.86328125 C318.93248122 362.11096101 323.37787266 374.37475401 330.5625 386.3125 C331.13484375 387.30765625 331.7071875 388.3028125 332.296875 389.328125 C336.89811733 396.99686222 342.61515933 403.67081128 348.5625 410.3125 C349.20832031 411.04339844 349.85414063 411.77429688 350.51953125 412.52734375 C367.35762856 430.46597029 390.69664995 440.63426976 413.5625 448.3125 C414.32433594 448.56870117 415.08617187 448.82490234 415.87109375 449.08886719 C431.29384394 454.12208315 447.59910563 456.59700845 463.5625 459.3125 C464.71016846 459.51335205 465.85783691 459.7142041 467.0402832 459.92114258 C476.46784914 461.43905446 485.72698101 461.67275662 495.25 461.625 C496.04242096 461.62251251 496.83484192 461.62002502 497.65127563 461.61746216 C524.46742282 461.48728176 547.13899647 456.88508591 567.375 438.0625 C573.51381879 431.62919913 578.48725309 423.65739111 581.5625 415.3125 C580.72332031 415.74820312 579.88414062 416.18390625 579.01953125 416.6328125 C557.64133898 427.39328064 537.22833885 429.99002381 513.5625 428.3125 C512.5725 427.9825 511.5825 427.6525 510.5625 427.3125 C511.08199219 428.05113281 511.60148438 428.78976562 512.13671875 429.55078125 C523.5625 446.17201941 523.5625 446.17201941 523.5625 454.3125 C518.9425 454.6425 514.3225 454.9725 509.5625 455.3125 C508.94503906 454.34570312 508.32757812 453.37890625 507.69140625 452.3828125 C498.79677058 438.63285631 489.09066052 425.84170826 473.5625 419.3125 C472.76457031 418.97476562 471.96664062 418.63703125 471.14453125 418.2890625 C458.06546561 413.15016817 445.4332599 411.82037054 431.5625 412.3125 C432.70525391 413.29476562 432.70525391 413.29476562 433.87109375 414.296875 C444.78797533 423.86623452 453.76507212 434.89080202 459.5625 448.3125 C459.5625 449.6325 459.5625 450.9525 459.5625 452.3125 C441.98347874 451.20666135 441.98347874 451.20666135 436.55859375 446.6171875 C434.77745414 444.5850148 433.16476572 442.48783886 431.5625 440.3125 C423.1489939 430.13892711 414.13088471 423.51928175 402.5625 417.3125 C401.76328125 416.87164063 400.9640625 416.43078125 400.140625 415.9765625 C393.6185851 412.53052014 386.73753799 409.91737835 379.86865234 407.25390625 C359.03771967 399.1215882 338.46807141 386.18335762 329.10107422 365.07617188 C325.93544173 357.5861728 323.41864375 349.89802683 320.91503906 342.16674805 C317.06817039 330.28998838 313.34408389 318.89871265 306.5625 308.3125 C305.51835938 306.67087891 305.51835938 306.67087891 304.453125 304.99609375 C292.3737299 286.85558373 276.74844916 271.32657486 261.3125 256.0625 C244.26357876 239.20122412 227.41483323 221.64848707 218.8125 198.875 C218.51819092 198.09987061 218.22388184 197.32474121 217.9206543 196.52612305 C214.36184741 186.66438144 213.19071495 177.01106663 213.25 166.5625 C213.25563965 165.51118896 213.2612793 164.45987793 213.26708984 163.37670898 C213.50819652 147.84203877 216.92096958 130.53198404 225.5625 117.3125 C229.74636785 120.57795784 233.20275651 124.03982055 236.64453125 128.07421875 C238.74420782 130.52455413 240.89756376 132.91967573 243.0625 135.3125 C244.5625 136.97916667 246.0625 138.64583333 247.5625 140.3125 C248.24183594 141.06273437 248.92117188 141.81296875 249.62109375 142.5859375 C250.24113281 143.27945313 250.86117188 143.97296875 251.5 144.6875 C252.31791016 145.59628906 252.31791016 145.59628906 253.15234375 146.5234375 C255.85146823 149.9478115 255.85146823 149.9478115 256.5625 152.3125 C256.11495588 154.26280695 255.65667438 156.21244092 255.10449219 158.13574219 C251.67135562 171.92396095 255.24826596 187.14508155 262.3125 199.0625 C272.7302099 214.92888322 286.23688594 228.12851945 299.68212891 241.39550781 C309.40765863 251.0302088 317.70167937 261.13371853 325.5625 272.3125 C326.14257812 273.13363281 326.72265625 273.95476562 327.3203125 274.80078125 C337.32523219 290.19086264 341.96255166 309.16061289 346.48095703 326.75366211 C351.9507924 347.95497622 361.4153449 363.22841422 380.48852539 374.8503418 C398.06761942 385.20627183 416.68444767 387.6335875 436.60839844 389.96240234 C454.75770058 392.11331964 471.05427903 396.00521626 488.02807617 402.78491211 C494.76536075 405.45556731 501.52054451 407.56518187 508.5625 409.3125 C509.41070313 409.53808594 510.25890625 409.76367188 511.1328125 409.99609375 C534.44934266 415.29530515 560.89578908 410.07460328 581.0625 397.5625 C588.27332215 392.8923016 594.54044115 387.41581601 600.5625 381.3125 C601.28824219 380.58546875 602.01398437 379.8584375 602.76171875 379.109375 C609.00783017 372.48285208 614.48409661 364.46930679 618.5625 356.3125 C619.2225 356.3125 619.8825 356.3125 620.5625 356.3125 C615.69044641 372.8875042 610.42375296 389.44317388 603.5625 405.3125 C603.2207373 406.10672363 602.87897461 406.90094727 602.52685547 407.71923828 C589.85388974 436.98867151 572.86720824 460.6895314 542.5625 473.3125 C528.88087116 478.35422448 515.01622433 480.7069029 500.4375 480.6875 C498.58850098 480.68617065 498.58850098 480.68617065 496.70214844 480.68481445 C481.19631879 480.49423244 465.89660775 478.48802917 450.5625 476.3125 C449.67143555 476.19003906 448.78037109 476.06757812 447.86230469 475.94140625 C443.04932156 475.2631085 438.30541557 474.36493678 433.5625 473.3125 C432.57749512 473.09787109 431.59249023 472.88324219 430.57763672 472.66210938 C412.47499347 468.63988936 394.22803649 463.64526824 377.5625 455.3125 C386.85124656 481.35092867 400.94754231 499.30154392 425.875 512.0625 C426.92107422 512.54976562 426.92107422 512.54976562 427.98828125 513.046875 C429.5625 514.3125 429.5625 514.3125 430.35546875 516.890625 C430.42378906 517.68984375 430.49210937 518.4890625 430.5625 519.3125 C429.5625 520.3125 429.5625 520.3125 426.4375 520.6875 C412.71305826 520.49038055 399.19124789 512.24795984 388.625 504.25 C387.80878174 503.63282104 387.80878174 503.63282104 386.97607422 503.00317383 C383.65977797 500.40711467 381.13276686 497.63027177 378.5625 494.3125 C377.9025 493.9825 377.2425 493.6525 376.5625 493.3125 C376.500625 494.323125 376.43875 495.33375 376.375 496.375 C374.15262856 513.43320239 364.9727713 528.99510507 354.5625 542.3125 C349.65265077 541.96995238 345.33456314 540.69331754 340.6875 539.0625 C339.55570313 538.66546875 338.42390625 538.2684375 337.2578125 537.859375 C334.5625 536.3125 334.5625 536.3125 333.671875 534.02734375 C333.55170889 531.04464927 333.57848222 528.10845331 333.6875 525.125 C333.7550007 510.13984383 326.34402693 499.50386074 316.33203125 489.0234375 C313.38020753 486.13406421 310.36651077 483.67386985 306.92578125 481.3984375 C306.47589844 481.04007813 306.02601563 480.68171875 305.5625 480.3125 C305.5625 479.6525 305.5625 478.9925 305.5625 478.3125 C305.02109375 478.08820313 304.4796875 477.86390625 303.921875 477.6328125 C300.82187276 475.89804303 298.38142822 473.60738452 295.8125 471.1875 C295.26190918 470.67050537 294.71131836 470.15351074 294.14404297 469.62084961 C292.93829978 468.48179502 291.73581345 467.33928573 290.53613281 466.19384766 C289.15556426 464.87783315 287.76898216 463.56811145 286.37792969 462.26318359 C284.13149824 460.1501795 281.90755861 458.01566514 279.6875 455.875 C278.60710449 454.86445557 278.60710449 454.86445557 277.50488281 453.83349609 C276.84584961 453.18848145 276.18681641 452.5434668 275.5078125 451.87890625 C274.91500488 451.31115479 274.32219727 450.74340332 273.71142578 450.15844727 C272.5625 448.3125 272.5625 448.3125 272.75585938 445.77050781 C273.85798008 442.41210851 275.69095668 440.21548197 277.9375 437.5 C278.72898437 436.52417969 279.52046875 435.54835938 280.3359375 434.54296875 C281.07070313 433.80691406 281.80546875 433.07085938 282.5625 432.3125 C283.5525 432.3125 284.5425 432.3125 285.5625 432.3125 C287.4375 434.33203125 287.4375 434.33203125 289.5625 437.125 C296.63311116 446.03763122 304.58048873 453.63576798 313.46484375 460.73046875 C317.3973184 463.94628357 321.10091136 467.40919778 324.8125 470.875 C325.47403076 471.48827148 326.13556152 472.10154297 326.81713867 472.73339844 C333.57230682 479.08821644 339.5940385 485.67343665 344.3125 493.6875 C344.69591553 494.33017822 345.07933105 494.97285645 345.47436523 495.63500977 C348.37154964 500.64207981 350.39741215 505.62097892 351.5625 511.3125 C359.32473293 495.35460996 361.74967544 477.70909794 355.92578125 460.59765625 C350.85608989 448.38100744 341.90321545 433.48285772 329.5625 427.3125 C329.459375 428.55 329.35625 429.7875 329.25 431.0625 C328.19965798 440.34052121 325.71876652 448.95777137 321.5625 457.3125 C317.55554703 455.94600805 314.8857826 454.14146473 311.75 451.3125 C310.95980469 450.61125 310.16960937 449.91 309.35546875 449.1875 C307.5625 447.3125 307.5625 447.3125 307.5625 445.3125 C306.9025 445.3125 306.2425 445.3125 305.5625 445.3125 C305.70697983 443.81236903 305.85317215 442.31240298 306 440.8125 C306.09023438 439.88824219 306.18046875 438.96398437 306.2734375 438.01171875 C306.50213452 435.87618306 306.80112415 433.74818615 307.125 431.625 C308.968079 416.3274443 306.84976787 401.09094765 299.5625 387.3125 C298.9025 386.9825 298.2425 386.6525 297.5625 386.3125 C297.3975 387.4675 297.2325 388.6225 297.0625 389.8125 C291.60418107 414.39429092 271.33904188 438.32706077 253.5625 455.3125 C252.20125 456.7046875 252.20125 456.7046875 250.8125 458.125 C248.5625 460.3125 248.5625 460.3125 245.5625 462.3125 C244.59826974 460.92073368 243.64138398 459.5238777 242.6875 458.125 C242.15382813 457.34769531 241.62015625 456.57039063 241.0703125 455.76953125 C237.50043596 449.9522972 237.50043596 449.9522972 237.63671875 446.3515625 C239.00450137 443.338978 241.17434587 441.11093827 243.375 438.6875 C253.97789082 426.54230664 262.37348801 413.19207075 268.5625 398.3125 C269.09810547 397.04986328 269.09810547 397.04986328 269.64453125 395.76171875 C270.67310518 393.01739597 271.41946163 390.28181699 272.125 387.4375 C272.49818359 385.95636719 272.49818359 385.95636719 272.87890625 384.4453125 C276.10131221 369.67748634 274.89650017 356.55711594 270.5625 342.3125 C270.29695313 341.34828125 270.03140625 340.3840625 269.7578125 339.390625 C265.45505459 325.5398424 255.39241519 314.5698028 245.5625 304.3125 C244.40682294 303.00865921 243.2597773 301.69707064 242.125 300.375 C239.60122856 297.44670061 236.97314416 294.63764177 234.30883789 291.83691406 C213.29327949 269.60024803 201.85542303 243.90436472 197.6875 213.6875 C194.50798774 191.38478476 184.00866535 171.52691571 166.6875 156.8125 C156.11014286 149.00496046 143.57979176 142.45432277 130.5625 140.3125 C129.42059204 140.05774902 129.42059204 140.05774902 128.25561523 139.79785156 C123.37623481 138.91849264 118.44491242 139.12790706 113.5 139.125 C111.89608398 139.10663086 111.89608398 139.10663086 110.25976562 139.08789062 C99.66521047 139.06868599 89.76395744 140.25244267 80 144.5 C79.27748047 144.80824707 78.55496094 145.11649414 77.81054688 145.43408203 C63.43109416 151.74192848 53.02365208 160.41790274 45.5625 174.3125 C45.00175781 175.32828125 44.44101562 176.3440625 43.86328125 177.390625 C42.41508673 180.02370595 40.98237867 182.66407384 39.5625 185.3125 C37.9125 184.9825 36.2625 184.6525 34.5625 184.3125 C33.53361681 174.02366813 38.07335286 163.85117333 43.5625 155.3125 C42.79550781 155.5290625 42.02851563 155.745625 41.23828125 155.96875 C25.75132012 159.85398067 8.92893362 159.92666326 -6.4375 155.3125 C-7.4275 154.6525 -8.4175 153.9925 -9.4375 153.3125 C-8.0479538 149.95443002 -6.70804981 147.99197152 -3.4375 146.3125 C-1.09985715 146.61413134 1.23299493 146.95338766 3.5625 147.3125 C25.09950835 148.64897763 43.42796568 141.67366753 62.45117188 132.0637207 C64.34842124 131.1068839 66.25194307 130.16340293 68.15625 129.22070312 C69.37017825 128.61275046 70.58373521 128.00405572 71.796875 127.39453125 C72.88194336 126.85030518 73.96701172 126.3060791 75.08496094 125.74536133 C77.67178608 124.55256966 77.67178608 124.55256966 78.5625 122.3125 C77.87027344 122.21710938 77.17804688 122.12171875 76.46484375 122.0234375 C63.77889965 118.91597878 52.34835198 108.13938232 42.66015625 99.8203125 C32.12279918 90.84012584 22.11414274 86.5978362 8.5625 84.3125 C8.0675 80.8475 8.0675 80.8475 7.5625 77.3125 C10.1044589 77.25815884 12.64523682 77.2186661 15.1875 77.1875 C15.90035156 77.17074219 16.61320312 77.15398437 17.34765625 77.13671875 C21.8237164 77.09565398 25.34199278 77.62163433 29.5625 79.3125 C28.93021484 77.91837891 28.93021484 77.91837891 28.28515625 76.49609375 C27.7313127 75.24759897 27.17795307 73.99888943 26.625 72.75 C26.34720703 72.14091797 26.06941406 71.53183594 25.78320312 70.90429688 C23.92658217 66.67656963 23.02984921 62.90908658 22.5625 58.3125 C21.95365967 58.32821045 21.34481934 58.3439209 20.7175293 58.36010742 C-2.08264982 58.87128351 -2.08264982 58.87128351 -10.4375 55.3125 C-11.53964844 54.86003906 -12.64179688 54.40757812 -13.77734375 53.94140625 C-30.47154523 46.38279386 -42.26837029 33.01887055 -49.375 16.140625 C-55.13486842 0.80921053 -55.13486842 0.80921053 -54.4375 -6.6875 C-37.7101217 -12.26329277 -15.5254921 -7.47422565 0 0 Z " fill="#ffffff" transform="translate(245.4375,320.6875)"/>
      <path d="M0 0 C9.89743185 4.01247237 16.47005925 17.79663621 21 27 C26.72856224 41.33796214 27.73978717 55.99711111 24 71 C23.68482422 72.45019531 23.68482422 72.45019531 23.36328125 73.9296875 C19.57933022 88.73324227 9.9529275 101.68296569 0 113 C-11.69770272 126.4644744 -21.54491522 139.71616624 -29 156 C-29.42152344 156.88171875 -29.84304688 157.7634375 -30.27734375 158.671875 C-39.76847307 180.01796208 -38.16229942 206.3086005 -31 228 C-30.77538086 228.7027002 -30.55076172 229.40540039 -30.31933594 230.12939453 C-22.80648796 253.22019295 -9.06259582 273.0281846 7 291 C7.46825195 291.52464844 7.93650391 292.04929687 8.41894531 292.58984375 C13.47275648 298.22585947 18.65222986 303.70458419 24.04516602 309.01904297 C49.56050823 334.87535454 69.30097839 368.26306152 69.24658203 405.46240234 C69.01746977 421.17071545 66.29045988 435.60726494 60 450 C56.20793107 446.26143469 52.59283703 442.41341055 49.09643555 438.39697266 C45.90510569 434.82255812 42.53626105 431.731981 38.8359375 428.68359375 C23.70460828 415.77651362 23.70460828 415.77651362 22.890625 406.4921875 C22.8616444 400.94803809 23.39900574 395.46115821 23.89257812 389.94335938 C24.14038104 383.1535595 21.6449599 377.13955776 19 371 C18.66226563 370.14535156 18.32453125 369.29070312 17.9765625 368.41015625 C12.54106467 356.12920063 3.14081806 344.69964536 -6 335 C-7.15136066 333.69234603 -8.29721122 332.37981992 -9.4375 331.0625 C-12.046287 328.06919791 -14.70249963 325.1240082 -17.375 322.1875 C-21.2246175 317.9231089 -24.86529991 313.52515538 -28.4765625 309.05859375 C-32.01379208 304.77120867 -35.67914816 300.59950404 -39.33837891 296.41625977 C-42.22098982 293.10545026 -44.99957863 289.77159886 -47.625 286.25 C-65.64246376 262.82729711 -89.42158407 255.18446677 -117.17529297 248.83935547 C-128.36135081 246.27337775 -139.21762709 243.54556962 -149.1875 237.6875 C-149.86167969 237.29941162 -150.53585937 236.91132324 -151.23046875 236.51147461 C-156.42260781 233.46670941 -161.72862315 230.28324178 -166 226 C-166 225.34 -166 224.68 -166 224 C-166.66 224 -167.32 224 -168 224 C-174.29993355 216.71371322 -179.48923059 208.75496997 -183.625 200.0625 C-183.95516113 199.37808838 -184.28532227 198.69367676 -184.62548828 197.98852539 C-186.74877476 193.3033366 -187.57621035 189.12556404 -188 184 C-185.29120665 182.64560332 -182.99066732 182.93498549 -180 183 C-179.73896484 183.49814209 -179.47792969 183.99628418 -179.20898438 184.50952148 C-168.40320117 204.96907029 -155.99004502 218.55989778 -133.40625 226.21875 C-124.25858056 228.90924101 -115.48944995 229.75060578 -106 230 C-106.47050781 229.14019531 -106.94101562 228.28039062 -107.42578125 227.39453125 C-115.41328338 212.40540075 -117.72148965 197.87323584 -115 181 C-114.34 180.01 -113.68 179.02 -113 178 C-108.125 179.875 -108.125 179.875 -107 181 C-106.68676729 183.07622491 -106.37889619 185.15342525 -106.10058594 187.23461914 C-104.25463523 200.80801295 -100.36450703 211.03681117 -92 222 C-91.401875 222.886875 -90.80375 223.77375 -90.1875 224.6875 C-82.69970985 232.60316387 -72.68608043 236.72068509 -62.92773438 241.11523438 C-60.25128256 242.34363627 -57.62374008 243.66337769 -55 245 C-55.93073048 241.01921922 -56.87082109 237.04070382 -57.8125 233.0625 C-58.07353516 231.94552734 -58.33457031 230.82855469 -58.60351562 229.67773438 C-62.2723939 214.23220977 -66.85618233 203.55516664 -78 192 C-78.68578125 191.28585937 -79.3715625 190.57171875 -80.078125 189.8359375 C-83.27125821 186.57994733 -86.54848004 183.48055232 -90 180.5 C-104.06605652 168.340737 -116.81852726 150.58253588 -118.375 131.375 C-119.0582337 127.75060787 -120.08070784 126.93619649 -123.05859375 124.58203125 C-125.49336134 122.97201609 -127.98626839 121.49179843 -130.51953125 120.04296875 C-143.56537908 112.56097297 -150.38946776 99.37230446 -154.80859375 85.453125 C-159.00443492 68.20677095 -154.70366867 50.9510219 -148 35 C-131.9056584 39.74955341 -116.14053028 52.3595055 -108 67 C-103.59175205 76.22726447 -100.80260339 83.89190222 -100.8125 94.125 C-100.81330566 94.97868164 -100.81411133 95.83236328 -100.81494141 96.71191406 C-100.8859446 104.01549748 -101.85232882 110.49322696 -104.125 117.4375 C-106.54517155 127.29105558 -104.80176532 135.15828791 -100 144 C-97.52100782 147.82844356 -94.85359811 151.44381144 -92 155 C-91.29230469 155.94230469 -90.58460938 156.88460937 -89.85546875 157.85546875 C-86.29021924 162.10221005 -81.76363996 165.18436202 -77.3125 168.4375 C-76.46494141 169.06720703 -75.61738281 169.69691406 -74.74414062 170.34570312 C-68.90201021 174.66843537 -62.97206055 178.85910504 -57 183 C-56.79246094 181.9584375 -56.58492187 180.916875 -56.37109375 179.84375 C-52.13063237 159.68732872 -43.30360885 141.76914253 -30 126 C-27.8819837 123.28325117 -25.76966606 120.56231661 -23.6640625 117.8359375 C-23.11492187 117.23007813 -22.56578125 116.62421875 -22 116 C-21.34 116 -20.68 116 -20 116 C-19.77441406 115.4534375 -19.54882812 114.906875 -19.31640625 114.34375 C-16.99800671 110.21603569 -13.47212091 107.05839888 -10.21484375 103.65625 C-7.54363369 100.68476998 -7.54363369 100.68476998 -7 97 C-8.67462599 94.30745923 -8.67462599 94.30745923 -11.0625 91.5625 C-21.93446336 77.8607314 -25.12316079 63.14820286 -23.7578125 45.94921875 C-21.68481168 28.62485474 -12.84093346 11.88861543 0 0 Z " fill="#ffffff" transform="translate(511,127)"/>
      <path d="M0 0 C0.66 0 1.32 0 2 0 C3.2530313 1.55351843 4.42642947 3.17150923 5.5625 4.8125 C12.5496641 14.74456665 12.5496641 14.74456665 20.7578125 23.65234375 C22 25 22 25 22.0625 27.5625 C21.10045989 30.67498271 20.08157036 32.65272288 18.375 35.375 C11.62597334 46.26985732 7.66573479 57.76408827 4.0625 70 C0.12580653 83.30113647 -4.57869713 96.49605352 -14 107 C-14.62003906 107.7115625 -15.24007813 108.423125 -15.87890625 109.15625 C-28.11253232 122.31359369 -44.90387216 129.26137141 -61.20068359 135.99780273 C-74.5574068 141.51938871 -87.12668575 147.24394372 -98 157 C-98.60972656 157.51691406 -99.21945312 158.03382813 -99.84765625 158.56640625 C-114.24808965 171.65472726 -120.92675442 191.10687987 -122.28515625 209.95703125 C-123.16200681 228.63700186 -116.93718094 247.1417538 -104.66308594 261.31152344 C-99.37675569 267.11473931 -93.73966012 271.92349847 -87 276 C-86.32839844 276.41894531 -85.65679687 276.83789062 -84.96484375 277.26953125 C-71.34732255 285.45160875 -50.59967642 280.74455428 -36.125 277.1875 C-34.07953542 276.65587021 -32.03945611 276.10841052 -30.00146484 275.54882812 C-28.08435525 275.02313132 -26.16140585 274.51887256 -24.23828125 274.015625 C-7.1439955 269.16668064 9.28556178 260.90891319 24 251 C25.04800781 250.30519531 26.09601563 249.61039063 27.17578125 248.89453125 C45.34182501 236.60253757 62.68251422 222.52282994 76.24658203 205.16479492 C77.58203125 203.5 77.58203125 203.5 80 201 C84 201 84 201 86.4375 203.1875 C87.283125 204.115625 88.12875 205.04375 89 206 C89.94875 206.825 90.8975 207.65 91.875 208.5 C94 211 94 211 93.83300781 213.41577148 C92.90742237 216.28720229 91.87010186 217.67867682 89.796875 219.84765625 C89.14589844 220.53537109 88.49492188 221.22308594 87.82421875 221.93164062 C87.13972656 222.63482422 86.45523437 223.33800781 85.75 224.0625 C85.08097656 224.76955078 84.41195313 225.47660156 83.72265625 226.20507812 C80.32715869 229.75734227 76.91751735 233.01589834 73 236 C70.78233488 238.15930551 68.61548176 240.35905342 66.47167969 242.59155273 C62.44634272 246.71840331 58.26208321 250.33126244 53.625 253.75 C52.93728516 254.26022705 52.24957031 254.7704541 51.54101562 255.29614258 C43.92006658 260.88512591 36.05538095 266.06105876 28 271 C27.35095703 271.39815918 26.70191406 271.79631836 26.03320312 272.20654297 C8.48202859 282.83079456 -10.15613437 289.97040988 -30 295 C-31.27230469 295.32871094 -32.54460937 295.65742187 -33.85546875 295.99609375 C-56.26219102 301.48613473 -80.60388656 301.67314108 -100.99609375 289.98828125 C-105.81479073 286.79879261 -109.8951844 283.04648784 -114 279 C-114.61230469 278.45988281 -115.22460938 277.91976563 -115.85546875 277.36328125 C-130.93693458 263.66226996 -139.96507698 239.78948761 -141.12646484 219.82617188 C-142.03661747 192.25492411 -134.94203337 167.71998596 -116 147 C-112.75795681 143.88801012 -109.42654912 140.90694946 -106 138 C-126.39776421 137.20870742 -145.7255776 140.93992082 -162 154 C-163.02480469 154.76376953 -163.02480469 154.76376953 -164.0703125 155.54296875 C-172.32633519 162.09922207 -178.07608705 171.79442362 -183 181 C-187.95 180.67 -192.9 180.34 -198 180 C-196.87377458 173.24264747 -196.87377458 173.24264747 -195.0390625 169.80078125 C-194.64976562 169.06666016 -194.26046875 168.33253906 -193.859375 167.57617188 C-193.45203125 166.82916016 -193.0446875 166.08214844 -192.625 165.3125 C-192.22539062 164.55388672 -191.82578125 163.79527344 -191.4140625 163.01367188 C-189.55239701 159.54448273 -187.90917922 156.69884566 -185 154 C-185.94617188 154.02094727 -186.89234375 154.04189453 -187.8671875 154.06347656 C-191.46045091 154.13722406 -195.0536516 154.18227544 -198.64746094 154.21972656 C-200.18728977 154.23954171 -201.72704658 154.2666021 -203.26660156 154.30175781 C-217.40161647 154.61586925 -229.93479267 152.44644453 -243.0625 147 C-244.22910156 146.525625 -245.39570313 146.05125 -246.59765625 145.5625 C-250.21862996 143.89959589 -253.57184166 142.02632544 -257 140 C-246.39862975 159.7872987 -232.83920624 174.67297827 -211.27734375 182.3203125 C-207.86204768 183.32371831 -204.47297121 184.21964384 -201 185 C-200.33693848 185.17732666 -199.67387695 185.35465332 -198.99072266 185.53735352 C-191.18444835 187.42591443 -183.39354954 187.26835335 -175.4140625 187.20581055 C-173.00510025 187.18753869 -170.59652448 187.18530166 -168.1875 187.18554688 C-160.39266189 187.16714575 -152.7459509 186.97605228 -145 186 C-145.80502556 192.0376917 -146.88961441 198.01178224 -148 204 C-156.41554459 205.87956487 -164.51710053 206.35215469 -173.125 206.3125 C-174.40528076 206.30686035 -175.68556152 206.3012207 -177.00463867 206.29541016 C-206.36726187 205.92013335 -230.98417834 195.44615198 -251.73925781 174.5637207 C-262.43935148 163.48644699 -269.66258339 149.62970123 -275.5 135.5 C-275.97139404 134.37215088 -276.44278809 133.24430176 -276.9284668 132.08227539 C-280.7042343 122.94485344 -284.06725281 113.70957103 -287.20166016 104.3359375 C-288.03133129 101.90832484 -288.90521674 99.50069339 -289.79296875 97.09375 C-290.08002686 96.30943604 -290.36708496 95.52512207 -290.6628418 94.71704102 C-291.20583141 93.23850673 -291.75510463 91.76225913 -292.31176758 90.28881836 C-294.11166202 85.33498605 -294.11166202 85.33498605 -293 82 C-292.5875 82.67804688 -292.175 83.35609375 -291.75 84.0546875 C-287.58352704 90.76940508 -283.08257507 96.95399677 -278 103 C-277.38511719 103.76183594 -276.77023437 104.52367187 -276.13671875 105.30859375 C-264.39153664 119.3395877 -247.3668967 128.84267635 -230 134 C-228.92621094 134.3196875 -227.85242188 134.639375 -226.74609375 134.96875 C-201.93562968 141.29585772 -179.12683128 134.80690552 -155.953125 126.10595703 C-137.05704446 119.02929988 -119.19118764 116.01633224 -99.09619141 114.17700195 C-88.62554679 113.16032605 -78.70710724 110.93935892 -68.875 107.1875 C-67.85889648 106.80174805 -67.85889648 106.80174805 -66.82226562 106.40820312 C-61.15200835 104.1865866 -56.02179548 101.45986271 -51 98 C-50.31808594 97.53980469 -49.63617188 97.07960938 -48.93359375 96.60546875 C-30.79495302 83.72028952 -23.03087015 66.07886831 -18.5 45 C-15.46772921 30.92486853 -10.54018771 10.54018771 0 0 Z " fill="#ffffff" transform="translate(453,595)"/>
      <path d="M0 0 C0.79661673 2.16485157 1.58704361 4.33198125 2.375 6.5 C2.81585937 7.7065625 3.25671875 8.913125 3.7109375 10.15625 C6.24088607 17.51832503 7.33681828 24.06803282 7.25 31.875 C7.24250732 32.76195557 7.23501465 33.64891113 7.22729492 34.56274414 C7.12812378 40.58115844 6.83674926 46.23010704 5 52 C4.68160156 53.0209375 4.36320313 54.041875 4.03515625 55.09375 C-0.02718954 66.80205976 -6.83027791 76.75407301 -17 84 C-18.5159375 84.66515625 -18.5159375 84.66515625 -20.0625 85.34375 C-26.07237171 87.90528287 -26.07237171 87.90528287 -29.87451172 92.98535156 C-30.85833588 96.29847246 -31.54279387 99.63880079 -32.20898438 103.02807617 C-36.78645321 125.8592423 -53.7932515 142.17315438 -71.0546875 156.54296875 C-91.54953202 173.69371456 -113.7183996 194.14797317 -118 222 C-118.19484874 225.35321093 -118.19634171 228.64764701 -118 232 C-117.23429688 231.07380859 -117.23429688 231.07380859 -116.453125 230.12890625 C-106.13558816 218.11007345 -93.46861749 210.41932992 -79.57421875 203.2265625 C-64.24833051 195.26646543 -51.88444072 184.7034715 -46 168 C-43.84072233 161.09575501 -42.66327371 154.51262639 -42.50390625 147.27734375 C-42 145 -42 145 -40.15234375 143.19140625 C-38 142 -38 142 -35 142 C-33.28189637 147.95200186 -32.69014256 153.25721966 -32.75 159.4375 C-32.73839844 160.62956055 -32.73839844 160.62956055 -32.7265625 161.84570312 C-32.75264785 169.86042696 -34.30186785 176.95094582 -37.5 184.3125 C-37.9228125 185.29863281 -38.345625 186.28476562 -38.78125 187.30078125 C-39.80373211 189.56531695 -40.88127203 191.78235241 -42 194 C-35.13301497 194.2509761 -29.21285269 193.4138044 -22.5625 191.75 C-21.24668945 191.44255859 -21.24668945 191.44255859 -19.90429688 191.12890625 C-2.63327279 186.92887829 12.30668431 177.79971396 22.29296875 162.80859375 C25.4227029 157.65921422 28.238534 152.35506173 31 147 C36.75 146.875 36.75 146.875 39 148 C36.99989576 166.14048035 25.9488073 183.08718678 11.99609375 194.4453125 C-3.12547186 205.39221276 -19.50906498 210.47544322 -37.55200195 214.4609375 C-59.21259261 219.29476315 -80.28107319 229.59338142 -92.8125 248.6875 C-99.41184792 259.28271682 -103.65334743 270.53185462 -105 283 C-108.76782741 281.49790399 -110.50139652 279.38108671 -112.9375 276.1875 C-116.58540598 271.59294735 -120.43989382 267.42094711 -124.625 263.3125 C-129.30689244 258.70547506 -133.78982885 254.04843788 -138 249 C-138.81339844 248.0409375 -139.62679687 247.081875 -140.46484375 246.09375 C-142.22401541 244.01543657 -143.96184855 241.92190522 -145.68359375 239.8125 C-147.01352363 238.19774534 -148.3676635 236.6009604 -149.78515625 235.0625 C-152.59533663 231.80613499 -153.33600302 229.23295984 -153.1875 225.0625 C-150.60362104 207.57346739 -140.61069591 191.79912861 -131.01708984 177.36254883 C-126.56575884 170.55752386 -123.16267183 163.48714147 -120 156 C-119.63003906 155.15953125 -119.26007812 154.3190625 -118.87890625 153.453125 C-114.76402626 141.96803774 -115.14293408 124.78107843 -119.74609375 113.5859375 C-120.15988281 112.73257813 -120.57367187 111.87921875 -121 111 C-121.63615234 109.62714844 -121.63615234 109.62714844 -122.28515625 108.2265625 C-126.27013358 100.30100869 -131.75596112 93.63860939 -137.72265625 87.1171875 C-140.96856619 83.51865781 -140.96856619 83.51865781 -141.125 80.9375 C-139.52453557 78.1811446 -137.26739643 76.22000711 -135 74 C-117.07062251 90.38437323 -98.80842299 108.22997237 -97 134 C-96.67338282 147.02014846 -96.67338282 147.02014846 -98 151 C-88.28383261 145.09385256 -78.9501959 139.030516 -70 132 C-69.05382812 131.29359375 -68.10765625 130.5871875 -67.1328125 129.859375 C-55.53981359 120.93180243 -45.51141751 107.84019438 -43 93 C-42.64164063 87.59901238 -43.60305667 83.7874384 -45.5 78.75 C-50.90061837 62.90831117 -48.73571728 47.30893985 -41.4375 32.4375 C-33.75093589 19.10763565 -16.28261224 0 0 0 Z " fill="#ffffff" transform="translate(662,163)"/>
      <path d="M0 0 C10.04102184 7.85819101 22.5427477 20.97187528 25.125 33.9375 C25.36654035 38.6137211 23.83327609 43.0943669 22.71875 47.59375 C20.66467442 57.32828208 22.19305709 66.24110688 24.57641602 75.7331543 C26.5884753 83.80377748 26.1446022 88.69413113 22.3125 96.0625 C21.80299805 97.10374023 21.80299805 97.10374023 21.28320312 98.16601562 C19.05092408 102.55964148 16.6670892 105.70539972 13 109 C-1 87.22222222 -1 87.22222222 -1 78 C-1.66 78 -2.32 78 -3 78 C-4.76654623 83.21131137 -6.47546727 88.43789219 -8.125 93.6875 C-8.45757812 94.74324219 -8.79015625 95.79898438 -9.1328125 96.88671875 C-14.16715212 114.96045153 -9.56283265 133.72803101 -1 150 C-0.58363281 150.86238281 -0.16726563 151.72476563 0.26171875 152.61328125 C6.18865207 164.34826957 15.13085944 174.39388214 24 184 C22.44997253 187.88397689 19.99523379 190.02979619 16.875 192.75 C15.96492187 193.54921875 15.05484375 194.3484375 14.1171875 195.171875 C13.41851562 195.77515625 12.71984375 196.3784375 12 197 C-5.68384753 189.77303948 -21.17993785 158.72222071 -28.17041016 142.12695312 C-31.0700239 134.69274627 -33.29248234 127.03107759 -33 119 C-33.66 119 -34.32 119 -35 119 C-35.495 120.485 -35.495 120.485 -36 122 C-37.56640625 123.5078125 -37.56640625 123.5078125 -39.5625 125.125 C-50.185485 134.27099243 -59.86595969 146.83151773 -61.81640625 161.20703125 C-61.87699219 162.12871094 -61.93757813 163.05039062 -62 164 C-62.04624512 164.62567871 -62.09249023 165.25135742 -62.14013672 165.89599609 C-62.82436031 176.44667523 -61.57740185 185.42198144 -58.19140625 195.42578125 C-57.23177676 198.30466972 -56.50214405 201.01599452 -56 204 C-55.34 204 -54.68 204 -54 204 C-53.9071875 202.83082031 -53.814375 201.66164063 -53.71875 200.45703125 C-53.16479494 196.08405613 -51.6389297 192.51403964 -49.5 188.6875 C-48.97031616 187.71973633 -48.97031616 187.71973633 -48.42993164 186.73242188 C-44.9557367 180.5838357 -40.75558126 175.21745426 -36 170 C-35.01773438 168.91332031 -35.01773438 168.91332031 -34.015625 167.8046875 C-29.22910373 162.75224839 -29.22910373 162.75224839 -25 162 C-23.43809119 164.23813753 -21.90116118 166.48769048 -20.375 168.75 C-19.70597656 169.70132813 -19.70597656 169.70132813 -19.0234375 170.671875 C-17.7734375 172.546875 -17.7734375 172.546875 -16 176 C-16.75016942 179.26184777 -18.55601307 180.64157476 -21.1875 182.5625 C-28.90905955 188.93278663 -35.13218538 200.10417444 -37 210 C-37.09294506 212.16507316 -37.12997032 214.33293843 -37.125 216.5 C-37.12757813 217.6240625 -37.13015625 218.748125 -37.1328125 219.90625 C-37.02158825 222.49712079 -36.6730739 224.52693801 -36 227 C-38.90946313 228.20571943 -41.82849916 229.38628225 -44.75 230.5625 C-45.575 230.90474609 -46.4 231.24699219 -47.25 231.59960938 C-48.04921875 231.91865234 -48.8484375 232.23769531 -49.671875 232.56640625 C-50.4050293 232.86490479 -51.13818359 233.16340332 -51.89355469 233.47094727 C-54.34527019 234.08671772 -55.65052847 233.88230421 -58 233 C-69.63693627 221.83408258 -79.42274993 201.16300192 -80 185 C-80.66 185 -81.32 185 -82 185 C-82.24492187 185.57363281 -82.48984375 186.14726563 -82.7421875 186.73828125 C-89.34430965 198.60979903 -106.39378765 206.16859548 -118.66796875 210.34375 C-123.55431308 211.71880167 -127.91276872 212.09974963 -133 212 C-133 210.02 -133 208.04 -133 206 C-131.99582031 205.46632813 -130.99164063 204.93265625 -129.95703125 204.3828125 C-105.49591585 191.15985646 -89.46037991 173.76408644 -81 147 C-81.76699219 147.35191406 -82.53398437 147.70382812 -83.32421875 148.06640625 C-101.1575774 155.99924756 -123.21263159 165.47330897 -143 165 C-140.78354811 151.0305203 -140.78354811 151.0305203 -137 146 C-134.11248908 144.31419481 -131.25381713 143.66732477 -128 143 C-90.8289291 134.24466889 -58.30009681 115.10576236 -37 83 C-36.44570313 82.16855469 -35.89140625 81.33710937 -35.3203125 80.48046875 C-33.77721045 78.03235821 -32.372475 75.54783922 -31 73 C-30.14921875 71.43378906 -30.14921875 71.43378906 -29.28125 69.8359375 C-23.38829325 58.39539876 -19.50220544 46.20659597 -15.56396484 33.99047852 C-11.64109236 21.98675597 -6.63703447 10.77619122 0 0 Z " fill="#ffffff" transform="translate(482,629)"/>
      <path d="M0 0 C-1.26115114 16.07967707 -8.28180117 31.99561732 -19 44 C-19.64324219 44.74765625 -20.28648437 45.4953125 -20.94921875 46.265625 C-33.38414246 59.78084708 -49.4614208 64.95808185 -67.375 65.75 C-70.58311669 65.86109534 -73.79041537 65.94670601 -77 66 C-77.50660156 67.42892578 -77.50660156 67.42892578 -78.0234375 68.88671875 C-78.47390696 70.1536641 -78.92443067 71.42059016 -79.375 72.6875 C-80.03628906 74.54955078 -80.03628906 74.54955078 -80.7109375 76.44921875 C-81.75503909 79.32524403 -82.84149255 82.1686944 -84 85 C-83.34644531 84.83628906 -82.69289063 84.67257812 -82.01953125 84.50390625 C-78.23008226 83.87151437 -74.51509049 83.89303291 -70.6875 83.9375 C-69.94693359 83.94201172 -69.20636719 83.94652344 -68.44335938 83.95117188 C-66.62887101 83.96287825 -64.81442466 83.98081102 -63 84 C-63 85.98 -63 87.96 -63 90 C-63.94359375 90.21914063 -64.8871875 90.43828125 -65.859375 90.6640625 C-80.70996062 94.25948792 -90.99285361 100.46632293 -102.32568359 110.53222656 C-111.6886253 118.74015971 -121.94364609 124.4587231 -133 130 C-130.35768893 132.64231107 -127.25453367 133.99907239 -123.9375 135.625 C-122.87208984 136.14960815 -122.87208984 136.14960815 -121.78515625 136.68481445 C-120.28223578 137.42226721 -118.77813524 138.15731917 -117.27294922 138.89013672 C-115.08401812 139.95897461 -112.90332916 141.04334646 -110.72265625 142.12890625 C-97.16523353 148.78937972 -83.46419788 154.15978276 -68.125 154.125 C-66.30355469 154.12306641 -66.30355469 154.12306641 -64.4453125 154.12109375 C-61.52873301 154.01858359 -58.863403 153.69708867 -56 153.1875 C-53.44198532 152.82411848 -52.39844798 152.77799572 -50.12109375 154.046875 C-48.4375 155.4375 -48.4375 155.4375 -46 158 C-46.53125 159.890625 -46.53125 159.890625 -48 162 C-50.59214123 162.82701649 -52.8362447 163.34837672 -55.5 163.75 C-56.25176514 163.87141357 -57.00353027 163.99282715 -57.77807617 164.11791992 C-71.67473072 166.16192635 -85.39343526 165.51239229 -99 162 C-98.61328125 162.63164062 -98.2265625 163.26328125 -97.828125 163.9140625 C-93.70123672 171.00332109 -87.98822042 180.9391456 -89.40234375 189.41015625 C-89.59957031 189.93480469 -89.79679688 190.45945312 -90 191 C-91.65 191 -93.3 191 -95 191 C-95.54527344 189.97261719 -96.09054687 188.94523438 -96.65234375 187.88671875 C-107.67103864 167.46790828 -120.81881796 155.34419914 -143.25 148.25 C-165.48667014 141.65567713 -189.98855846 145.12692452 -210.06958008 155.87036133 C-227.25765897 165.56201622 -236.7834626 178.9671701 -246 196 C-246.66 196 -247.32 196 -248 196 C-248.10521973 195.39559082 -248.21043945 194.79118164 -248.31884766 194.16845703 C-249.49137511 187.84557534 -251.20644293 181.92265699 -253.375 175.875 C-253.66632812 175.03324219 -253.95765625 174.19148437 -254.2578125 173.32421875 C-255.69164792 169.26797381 -257.23783604 165.40016394 -259.2109375 161.57421875 C-261 158 -261 158 -261.25 154.9375 C-259.30248273 150.36083441 -255.85066346 148.02050385 -252 145 C-251.25363281 144.35933594 -250.50726562 143.71867188 -249.73828125 143.05859375 C-226.25369585 123.22285303 -197.54844611 119.17309405 -167.9543457 116.56982422 C-142.65375885 114.25561986 -119.08181165 106.92878026 -102 87 C-94.06285626 76.37446886 -90.19648354 65.49172719 -87.625 52.625 C-84.69515935 38.21513261 -79.71200735 27.41237078 -69 17 C-68.38640625 16.36578125 -67.7728125 15.7315625 -67.140625 15.078125 C-51.14387079 -0.37173163 -21.10378547 -6.23635064 0 0 Z " fill="#ffffff" transform="translate(834,314)"/>
      <path d="M0 0 C6.28260706 -0.23268915 11.88019467 0.59545452 18 2 C18.38553299 11.5240927 17.57155806 19.8318365 15 29 C14.74476563 30.03640625 14.48953125 31.0728125 14.2265625 32.140625 C9.04856355 51.42748346 -4.24450594 70.55250835 -21.3203125 81.0390625 C-47.43775077 94.76970678 -76.77284379 91.65527397 -104.25 83.3125 C-129.99760031 75.124184 -154.06249282 62.15601824 -175 45 C-173.44997253 41.11602311 -170.99523379 38.97020381 -167.875 36.25 C-166.96492187 35.45078125 -166.05484375 34.6515625 -165.1171875 33.828125 C-164.41851563 33.22484375 -163.71984375 32.6215625 -163 32 C-158.70657819 33.34169432 -155.6948901 35.66371752 -152.19091797 38.36816406 C-123.91294804 59.43011537 -82.73350273 76.14596988 -47 72 C-38.69180286 69.91830407 -32.40811386 65.51222221 -26 60 C-25.40832031 59.56300781 -24.81664062 59.12601563 -24.20703125 58.67578125 C-11.06060834 48.65802649 -3.82391568 30.75790991 -1 15 C-0.37961653 10.01526447 -0.14240854 5.01990087 0 0 Z " fill="#ffffff" transform="translate(694,804)"/>
      <path d="M0 0 C17.5289882 -0.91191268 36.22661727 2.42473367 49.91796875 14.109375 C50.60503906 14.73328125 51.29210937 15.3571875 52 16 C52.75925781 16.64453125 53.51851563 17.2890625 54.30078125 17.953125 C60.94355001 23.98185631 64.55374262 30.88401716 68 39 C68.54333984 40.23169922 68.54333984 40.23169922 69.09765625 41.48828125 C72.10685773 49.5921308 71.25012758 58.49566216 71 67 C50.75219483 67.67466735 35.78069757 66.38549401 19.8125 52.75 C7.43737483 41.131348 0.67725274 25.39782594 -0.1796875 8.4453125 C-0.18632997 5.62226446 -0.13941304 2.81924139 0 0 Z " fill="#ffffff" transform="translate(257,232)"/>
      <path d="M0 0 C-0.56421836 19.88869706 -5.47064098 38.64946461 -20.00268555 52.91235352 C-31.44418319 63.24827223 -45.31727735 67.35830907 -60.4375 67.125 C-61.55060547 67.11597656 -62.66371094 67.10695313 -63.81054688 67.09765625 C-66.54059023 67.0742224 -69.2701801 67.041414 -72 67 C-72.20895009 48.15439011 -68.46957976 32.17914941 -55.5 17.9375 C-40.53783239 3.60471611 -20.07247182 -0.66172984 0 0 Z " fill="#ffffff" transform="translate(768,232)"/>
      <path d="M0 0 C4.76737262 4.16255669 8.65174413 8.4538783 12.0546875 13.78515625 C10.41099926 15.48020975 8.74655026 17.13879591 7.0546875 18.78515625 C6.21744141 19.61660156 6.21744141 19.61660156 5.36328125 20.46484375 C-5.28395791 30.46746926 -19.10210657 35.50411068 -33.6328125 35.05859375 C-51.53330912 33.58095842 -64.60503189 25.26658386 -76.9453125 12.78515625 C-77.85023438 11.94404297 -77.85023438 11.94404297 -78.7734375 11.0859375 C-79.9453125 9.78515625 -79.9453125 9.78515625 -79.9453125 7.78515625 C-57.45364802 -12.44086437 -25.20498764 -18.95388327 0 0 Z " fill="#ffffff" transform="translate(222.9453125,445.21484375)"/>
      <path d="M0 0 C3.48620653 2.50708303 6.78835066 5.15095623 10 8 C9.27651434 14.29432521 2.59014445 18.23014753 -2 22 C-10.29796897 28.44984135 -19.0359834 31.23475686 -29 34 C-29.99 34.33 -30.98 34.66 -32 35 C-50.09250485 36.62368633 -63.43221772 30.42867712 -77.17578125 19.2265625 C-78.875 17.6875 -78.875 17.6875 -81 15 C-80.93390205 10.64697813 -77.47438616 7.9797203 -74.5625 5.125 C-74.02044922 4.59197266 -73.47839844 4.05894531 -72.91992188 3.50976562 C-68.35985776 -0.85784561 -63.75117258 -4.31966957 -58 -7 C-57.1234375 -7.40992188 -56.246875 -7.81984375 -55.34375 -8.2421875 C-36.65760619 -15.68584369 -16.60144619 -9.83862428 0 0 Z " fill="#ffffff" transform="translate(871,445)"/>
      <path d="M0 0 C2.16017491 1.43002233 4.2852472 2.89018139 6.3828125 4.41015625 C4.849242 12.98679126 -5.0810749 20.36079887 -11.6171875 25.41015625 C-23.11162682 32.56501699 -36.3471291 36.521992 -49.80859375 33.75390625 C-59.33813986 31.14368819 -66.82298969 26.33230655 -74.6171875 20.41015625 C-73.2495434 15.00470576 -70.8554599 11.85698429 -67.1171875 7.91015625 C-66.57892334 7.33918213 -66.04065918 6.76820801 -65.48608398 6.17993164 C-47.92927192 -11.90034552 -21.13017484 -12.83579277 0 0 Z " fill="#ffffff" transform="translate(854.6171875,390.58984375)"/>
      <path d="M0 0 C6.27107477 4.7615592 12.85312335 10.70624671 16.41796875 17.8359375 C16.33203125 19.75 16.33203125 19.75 15.41796875 21.8359375 C5.18016258 30.73535475 -8.0013424 35.27660197 -21.484375 35.11328125 C-37.94562719 33.63944909 -50.90338424 23.67055184 -61.48828125 11.67578125 C-62.89453125 9.8359375 -62.89453125 9.8359375 -64.58203125 6.8359375 C-62.89419834 1.77243876 -58.17851969 0.14575978 -53.58203125 -2.1640625 C-35.16610256 -9.65427211 -17.42514716 -11.19984989 0 0 Z " fill="#ffffff" transform="translate(227.58203125,390.1640625)"/>
      <path d="M0 0 C1.16208984 0.01353516 1.16208984 0.01353516 2.34765625 0.02734375 C4.23190843 0.05060612 6.11599832 0.0864636 8 0.125 C8.34653167 16.89328245 7.50422633 29.60524412 -4.75 42.4375 C-11.64091055 48.9559289 -19.04805869 53.14101956 -28 56.125 C-28.89589844 56.46660156 -29.79179687 56.80820312 -30.71484375 57.16015625 C-34.62235606 58.30778472 -38.26341927 58.60986175 -42.3125 58.8125 C-43.04017578 58.85955078 -43.76785156 58.90660156 -44.51757812 58.95507812 C-46.34298223 59.05885226 -48.17185399 59.09758835 -50 59.125 C-51.70256721 57.42243279 -51.25337483 55.33388838 -51.3125 53 C-51.16314764 40.42453154 -47.14806056 29.37449179 -40 19.125 C-39.43796875 18.31289063 -38.8759375 17.50078125 -38.296875 16.6640625 C-29.146112 5.00678616 -14.43325229 -0.32518593 0 0 Z " fill="#ffffff" transform="translate(253,489.875)"/>
      <path d="M0 0 C16.92178216 -0.36965058 31.14880404 2.00338541 44.1328125 13.96484375 C55.94954446 26.38813799 59.30656659 41.37727848 59 58 C41.42787682 58.58864432 41.42787682 58.58864432 33 55 C32.03578125 54.5978125 31.0715625 54.195625 30.078125 53.78125 C18.34404276 48.42050177 8.82036696 40.13939876 3.78515625 28.09375 C2.79347475 25.4116221 1.87061926 22.72347562 1 20 C0.67 19.01 0.34 18.02 0 17 C-0.07973476 15.66474283 -0.10771338 14.32587917 -0.09765625 12.98828125 C-0.09443359 12.23095703 -0.09121094 11.47363281 -0.08789062 10.69335938 C-0.07951172 9.90767578 -0.07113281 9.12199219 -0.0625 8.3125 C-0.05798828 7.51521484 -0.05347656 6.71792969 -0.04882812 5.89648438 C-0.0370585 3.93095743 -0.01912348 1.96546915 0 0 Z " fill="#ffffff" transform="translate(763,490)"/>
      <path d="M0 0 C2.17578125 1.3125 2.17578125 1.3125 4.3125 3 C8.87242171 6.34394259 13.58102517 9.09931697 18.5625 11.75 C19.25835205 12.12640625 19.9542041 12.5028125 20.67114258 12.890625 C29.53489465 17.54536762 38.88012618 21.3426279 48.92431641 18.44482422 C58.32618918 15.26193329 66.67532868 10.68618638 74.8515625 5.11328125 C75.89054688 4.41589844 76.92953125 3.71851563 78 3 C78.58620117 2.60603027 79.17240234 2.21206055 79.77636719 1.80615234 C82.42743316 0.13868478 84.33091898 -1.02393291 87.51171875 -0.91015625 C88.74341797 -0.45962891 88.74341797 -0.45962891 90 0 C91.09957031 0.39316406 92.19914063 0.78632812 93.33203125 1.19140625 C94.48058594 1.64386719 95.62914062 2.09632813 96.8125 2.5625 C97.97394531 3.01753906 99.13539063 3.47257813 100.33203125 3.94140625 C101.65267578 4.46541016 101.65267578 4.46541016 103 5 C101.62018438 8.25207891 100.18613242 9.90586065 97.32421875 11.953125 C96.21590698 12.75254517 96.21590698 12.75254517 95.08520508 13.56811523 C94.2939624 14.12313721 93.50271973 14.67815918 92.6875 15.25 C91.87369873 15.8262915 91.05989746 16.40258301 90.22143555 16.99633789 C87.82486976 18.6801879 85.41674415 20.34526902 83 22 C82.3802832 22.42458496 81.76056641 22.84916992 81.12207031 23.28662109 C72.8492047 28.86851674 64.31607175 32.60560836 55 36 C54.14277344 36.34160156 53.28554688 36.68320312 52.40234375 37.03515625 C41.2182642 41.27603298 30.67796935 38.46692681 20 34 C6.10036217 27.48360418 -9.54907961 18.42460862 -20 7 C-20 6.34 -20 5.68 -20 5 C-17.79906488 3.95983203 -15.59161931 2.94322969 -13.375 1.9375 C-12.75753906 1.64294922 -12.14007813 1.34839844 -11.50390625 1.04492188 C-7.23705611 -0.86393213 -4.47989672 -1.38945336 0 0 Z " fill="#ffffff" transform="translate(471,883)"/>
      <path d="M0 0 C8.73584517 3.54774498 13.51697525 15.83699771 17 24 C20.97561444 35.76401951 20.09557263 48.72498984 15 60 C12.60362098 64.21023902 10.10350607 68.27176219 7 72 C6.34 72 5.68 72 5 72 C4.773125 72.598125 4.54625 73.19625 4.3125 73.8125 C2.66188867 76.56351888 0.8027919 77.52484637 -2 79 C-10.83268189 71.10807712 -18.16222384 59.89253228 -20 48 C-20.92854725 31.32933777 -16.65814776 19.08210574 -5.9296875 6.15625 C-4.0224313 4.02506493 -2.0445829 1.99914772 0 0 Z " fill="#ffffff" transform="translate(586,134)"/>
      <path d="M0 0 C4.78115694 1.37458262 7.13353165 4.067879 10 7.9375 C10.43570312 8.51653076 10.87140625 9.09556152 11.3203125 9.69213867 C20.14587508 21.76287911 23.21550969 34.15558796 22 49 C19.63200995 60.3152252 13.69974633 69.5669445 6 78 C-0.25800496 77.18797513 -3.11244218 73.72113283 -7 69 C-14.80421063 57.82896292 -18.42658819 46.65677684 -17 33 C-14.3602587 20.29344867 -8.23607715 9.86867233 0 0 Z " fill="#ffffff" transform="translate(436,134)"/>
      <path d="M0 0 C8.23617478 1.2456848 16.43165155 6.8695882 22 13 C28.75390523 22.22114816 31.35083741 29.40212792 31.3125 40.75 C31.32861328 41.6884375 31.34472656 42.626875 31.36132812 43.59375 C31.36693496 51.71244543 29.77868759 58.79331985 26 66 C20.18254698 64.50834538 15.84396721 61.39539035 11 58 C10.01 57.34 9.02 56.68 8 56 C8 55.34 8 54.68 8 54 C7.34 54 6.68 54 6 54 C-3.08707359 43.83113193 -6.95117618 33.48296687 -6.3984375 19.95703125 C-5.67309931 12.7534275 -3.31512407 6.39132028 0 0 Z " fill="#ffffff" transform="translate(686,473)"/>
      <path d="M0 0 C3.47623313 1.81275961 4.08405869 5.33376479 5.30834961 8.86645508 C8.82531832 20.11151818 8.36359558 32.47995996 2.91015625 42.99609375 C-2.92882153 53.83990962 -11.94817429 60.9680583 -23.08984375 65.99609375 C-23.74984375 65.99609375 -24.40984375 65.99609375 -25.08984375 65.99609375 C-30.03954433 53.17990476 -33.34523851 38.71423506 -28.46484375 25.30859375 C-23.72805032 15.78549338 -11.80070229 -0.02205739 0 0 Z " fill="#ffffff" transform="translate(337.08984375,473.00390625)"/>
      <path d="M0 0 C0.96035156 -0.00128906 1.92070313 -0.00257813 2.91015625 -0.00390625 C3.91175781 -0.00003906 4.91335938 0.00382813 5.9453125 0.0078125 C7.43611328 0.00201172 7.43611328 0.00201172 8.95703125 -0.00390625 C9.91996094 -0.00261719 10.88289062 -0.00132812 11.875 0 C13.18960205 0.00169189 13.18960205 0.00169189 14.53076172 0.00341797 C17.1306656 0.1358876 19.53416108 0.5595455 22.0703125 1.1328125 C20.19401917 14.29487019 14.34583218 25.36915877 3.6953125 33.4453125 C-6.11703782 40.23540566 -16.10290169 42.03907961 -27.9296875 41.1328125 C-31.04915044 40.37817449 -33.97691942 39.38550199 -36.9296875 38.1328125 C-37.34559343 32.20230203 -36.19761779 28.40901333 -33.5546875 23.2578125 C-33.19673096 22.55744873 -32.83877441 21.85708496 -32.4699707 21.13549805 C-26.13651194 9.40208968 -13.75880033 0.01775329 0 0 Z " fill="#ffffff" transform="translate(672.9296875,245.8671875)"/>
      <path d="M0 0 C8.928017 6.1963103 15.81018599 15.4324237 18.31640625 26.12890625 C18.59375 28.328125 18.59375 28.328125 18.71875 31.578125 C8.59194987 35.49817666 -2.55469704 36.32703301 -12.9140625 32.67578125 C-26.85889293 26.20961401 -34.60440225 15.01647626 -40.09375 1.140625 C-41.28125 -2.421875 -41.28125 -2.421875 -41.28125 -5.421875 C-27.06460748 -8.54950473 -12.42312226 -7.74317895 0 0 Z " fill="#ffffff" transform="translate(370.28125,252.421875)"/>
      <path d="M0 0 C4.86920597 0.41991318 7.54169374 2.8098058 10.9375 6.0625 C11.46601563 6.56128662 11.99453125 7.06007324 12.5390625 7.57397461 C16.52097477 11.39919126 20.16811622 15.22705681 23 20 C23.40992188 20.68707031 23.81984375 21.37414062 24.2421875 22.08203125 C28.51138548 30.72347681 28.46931965 41.91281861 26.234375 51.171875 C24.44738998 55.85207386 21.96518843 59.97581571 19 64 C9.74978857 62.51996617 3.1844836 55.04515485 -2.3125 48.0625 C-6.19481663 41.01681426 -7.55765762 34.2464891 -7.5 26.25 C-7.49790527 25.3825415 -7.49581055 24.51508301 -7.49365234 23.62133789 C-7.27868715 14.77248455 -4.94725944 7.42088915 0 0 Z " fill="#ffffff" transform="translate(498,277)"/>
      <path d="M0 0 C10.12154816 3.47590533 17.37047246 12.66203251 22 22 C25.78841241 33.0718585 24.90720369 43.52533904 20.38671875 54.1953125 C19.05256912 56.89367709 17.59395869 59.44779636 16 62 C8.33859002 61.03037414 2.34996963 55.00654657 -2.375 49.1875 C-8.68670589 39.93511296 -10.48317227 30.06336648 -9 19 C-7.17309554 12.2246299 -4.49581807 5.44088493 0 0 Z " fill="#ffffff" transform="translate(431,223)"/>
      <path d="M0 0 C8.76258867 0.38944839 17.00030549 5.31458415 23.375 11.18359375 C31.36492136 20.11463566 35.61262802 30.19641039 35.3046875 42.171875 C34.79052757 46.9443338 33.47979761 51.44609901 32 56 C27.17760129 57.80554265 23.64700201 55.68809357 19.171875 53.70703125 C9.09041187 48.28141624 2.52466883 39.88546044 -1.375 29.25 C-3.28989276 19.57783761 -2.17521041 9.51654554 0 0 Z " fill="#ffffff" transform="translate(299,356)"/>
      <path d="M0 0 C2.82150311 1.03255007 3.86053049 1.76421177 5.4140625 4.390625 C5.81367187 5.33421875 6.21328125 6.2778125 6.625 7.25 C7.23214844 8.64992187 7.23214844 8.64992187 7.8515625 10.078125 C11.89091572 20.3551189 12.98544175 31.03394007 8.9375 41.5 C4.91404466 49.82866525 -1.79413617 57.52545318 -10 62 C-12.07421875 61.9921875 -12.07421875 61.9921875 -14 61 C-20.69399882 52.17609247 -23.29932104 40.92762313 -22 30 C-18.98936343 16.89039264 -10.70082838 7.65284652 0 0 Z " fill="#ffffff" transform="translate(591,223)"/>
      <path d="M0 0 C3.9863789 11.95913669 3.17490932 25.55667374 -2 37 C-7.45236595 46.70461874 -16.74115462 52.42454398 -27.22265625 55.58984375 C-29 56 -29 56 -31 56 C-35.28306754 46.36309803 -36.04183047 33.57090608 -32.5625 23.5 C-27.40305474 12.98197299 -17.56089617 4.97265993 -7.125 0 C-3.9173884 -1.02643571 -3.05758739 -0.95301425 0 0 Z " fill="#ffffff" transform="translate(725,357)"/>
      <path d="M0 0 C2.08361268 7.58543962 -2.0512043 14.60560163 -5.6875 21.1875 C-11.04406236 29.69577708 -19.37182253 36.67712942 -29.1875 39.25 C-36.69910032 40.69058088 -44.8954777 41.15756547 -52 38 C-51.82317155 27.74394978 -47.16486063 17.92539921 -40.1875 10.4375 C-28.4682418 -0.10757434 -14.87680027 -0.33223623 0 0 Z " fill="#ffffff" transform="translate(754,306)"/>
      <path d="M0 0 C7.1398514 5.73235381 13.24179837 15.01229076 14.51953125 24.19140625 C14.5546875 26.375 14.5546875 26.375 14.1796875 29.75 C11.53439412 32.39529338 4.95485951 31.88116544 1.3671875 32 C-8.85043867 31.84542169 -18.26177302 27.7786398 -25.828125 20.93359375 C-32.46139758 13.82651598 -38.8203125 2.71408292 -38.8203125 -7.25 C-25.38495177 -10.23833521 -11.52674904 -7.55852396 0 0 Z " fill="#ffffff" transform="translate(307.8203125,314.25)"/>
      <path d="M0 0 C8.85789373 0.40263153 17.92183419 5.11885828 24.40234375 11.08984375 C30.68606201 18.60265116 34.17786919 26.09338128 34.125 35.8125 C34.13080078 36.86147461 34.13080078 36.86147461 34.13671875 37.93164062 C34.12899562 42.05965562 33.80084632 45.95127695 33 50 C27.13541519 50.60149588 23.07807822 48.62540098 18 46 C16.95585937 45.4740625 16.95585937 45.4740625 15.890625 44.9375 C8.05208884 40.56250308 2.8604114 33.42232247 0 25 C-0.94372042 20.41902379 -1.13436345 16.04736353 -1.125 11.375 C-1.12757813 10.08335937 -1.13015625 8.79171875 -1.1328125 7.4609375 C-1.0283103 4.73773315 -0.82214646 2.57083894 0 0 Z " fill="#ffffff" transform="translate(313,184)"/>
      <path d="M0 0 C2.54838842 10.75295602 2.17913787 23.1189348 -3 33 C-8.67997945 41.45392291 -16.52298016 47.28866981 -26.54296875 49.58203125 C-28.75 49.875 -28.75 49.875 -32 50 C-34.92916763 40.66327819 -35.76626803 30.81126707 -31.13671875 21.92578125 C-24.85954818 11.29126203 -13.35110787 0 0 0 Z " fill="#ffffff" transform="translate(711,184)"/>
      <path d="M0 0 C13.06074604 0.6530373 22.51768183 5.97748865 31.25 15.4375 C36.27321293 22.79291893 38.17179363 28.85517978 38.0625 37.75 C38.05798828 38.44738281 38.05347656 39.14476562 38.04882812 39.86328125 C38.0371002 41.57555803 38.01916653 43.28779033 38 45 C31.94913376 47.32725625 23.78134599 44.36214635 18 42 C11.39008188 37.74898078 6.48956055 32.00749151 3 25 C2.401875 23.865625 1.80375 22.73125 1.1875 21.5625 C-1.21633099 14.87768911 -0.21442971 6.98882028 0 0 Z " fill="#ffffff" transform="translate(220,265)"/>
      <path d="M0 0 C11.78244275 1.01526718 11.78244275 1.01526718 16 3 C17.27961709 5.09514771 18.11708907 7.20479703 18.99609375 9.49609375 C22.95031658 19.35857169 29.74071994 25.26564475 39.37109375 29.47265625 C45.0355031 31.60068737 49.95720386 33.05436184 56 33.375 C58.64453125 33.734375 58.64453125 33.734375 61 35 C63.79731562 39.80160583 65.4654298 44.67756664 67 50 C48.28956381 51.18866301 30.18309478 44.56818663 15.59765625 33.11328125 C7.55213337 25.89294021 1.11466106 14.88342676 0 4 C0 2.68 0 1.36 0 0 Z " fill="#ffffff" transform="translate(250,805)"/>
      <path d="M0 0 C0.65888577 13.17771539 0.35931091 23.82653609 -8.4375 34.5 C-14.60577118 40.89329395 -21.71132631 44.56341556 -30.64453125 45.18359375 C-32.76390195 45.18693134 -34.88310338 45.10243048 -37 45 C-37.52877016 32.33889229 -37.38756539 23.09070053 -29.125 12.8125 C-21.58257077 4.85592741 -10.99508275 -0.24988824 0 0 Z " fill="#ffffff" transform="translate(804,265)"/>
      <path d="M0 0 C0.95877736 10.7862453 -4.60175443 20.66327606 -11 29 C-23.55646415 42.71953927 -43.12042595 49.23883033 -61.36328125 50.11328125 C-62.90928743 50.12257588 -64.45563547 50.07183091 -66 50 C-65.38001259 47.98504093 -64.69799419 45.98928343 -64 44 C-63.87109375 43.25363281 -63.7421875 42.50726562 -63.609375 41.73828125 C-62.83846063 38.74851719 -62.16707803 37.24017392 -60 35 C-56.48094502 33.60393838 -52.77757934 33.04075811 -49.06494141 32.37744141 C-38.30099935 30.44766822 -28.54434699 26.10094964 -22 17 C-21.03531391 15.0826407 -20.15194728 13.13617991 -19.26098633 11.18359375 C-15.27659392 2.53587256 -15.27659392 2.53587256 -10.640625 0.58984375 C-7.0207438 0.05634598 -3.63827887 0 0 0 Z " fill="#ffffff" transform="translate(774,805)"/>
      <path d="M0 0 C2.48828125 0.93359375 2.48828125 0.93359375 4.0703125 3.0234375 C8.40262295 13.0496417 9.5802007 23.87926387 6.44921875 34.4375 C3.20097508 41.54189887 -1.61516545 46.88399992 -7.51171875 51.93359375 C-8.17945313 52.53042969 -8.8471875 53.12726562 -9.53515625 53.7421875 C-11.51171875 54.93359375 -11.51171875 54.93359375 -13.59375 55.01953125 C-16.64736598 53.2906 -17.06605934 50.79721338 -18.19921875 47.55859375 C-18.61558594 46.39585937 -19.03195312 45.233125 -19.4609375 44.03515625 C-22.19833246 35.95526183 -23.27079456 26.99758757 -19.76171875 18.93359375 C-19.04388517 17.58267083 -18.2963873 16.24682375 -17.51171875 14.93359375 C-16.93421875 13.90234375 -16.35671875 12.87109375 -15.76171875 11.80859375 C-12.29312988 7.37650797 -5.97024957 -0.15784486 0 0 Z " fill="#ffffff" transform="translate(282.51171875,516.06640625)"/>
      <path d="M0 0 C3.56136322 2.79121259 6.82648458 5.77733721 10 9 C7.40316615 15.67117662 -0.59672826 20.21006044 -6.9375 23 C-14.93926007 25.49850876 -23.42161577 24.63428696 -31.109375 21.5546875 C-36.91733628 18.43094616 -41.94858719 14.2081722 -47 10 C-44.45650338 3.60612728 -37.25184187 -0.16341101 -31.1875 -2.875 C-20.23241521 -6.74150052 -10.0702061 -5.84205334 0 0 Z " fill="#ffffff" transform="translate(281,429)"/>
      <path d="M0 0 C7.78399125 0.67537571 11.95513925 5.40207304 17 11 C22.88739865 18.98119626 24.33698365 27.33929148 23.32470703 37.02050781 C22.26251139 43.49590799 19.62010237 49.56984644 16 55 C6.52091792 51.73892542 0.4804986 44.16143209 -3.94140625 35.48046875 C-7.23055175 27.7734304 -7.32911192 18.39998423 -4.91796875 10.41796875 C-3.71243677 7.54484209 -2.43617569 4.7640496 -1 2 C-0.67 1.34 -0.34 0.68 0 0 Z " fill="#ffffff" transform="translate(740,516)"/>
      <path d="M0 0 C1.72169152 1.39747688 3.27375885 2.86259855 4.8046875 4.46484375 C2.2063453 11.0414387 -4.92363565 14.8129452 -10.98046875 17.87109375 C-19.50612463 21.30589036 -28.22675558 21.90514841 -36.921875 18.65625 C-42.28538884 15.84547385 -46.93041497 11.72974128 -51.1953125 7.46484375 C-51.06536182 4.50073057 -50.24878352 3.51730778 -48.12109375 1.4296875 C-32.40663828 -10.76134746 -16.82084434 -11.96501569 0 0 Z " fill="#ffffff" transform="translate(785.1953125,432.53515625)"/>
      <path d="M0 0 C2.68652846 8.68285998 1.92843564 19.77399818 -1.9296875 27.9765625 C-6.12333955 35.46729271 -12.77869467 41.99925716 -21.0703125 44.61328125 C-24.11850284 45.2241534 -26.90036245 45.19372735 -30 45 C-32.51160891 36.70964865 -31.98564206 27.05984844 -28.3203125 19.2421875 C-22.69959418 9.69694397 -11.66463966 0 0 0 Z " fill="#ffffff" transform="translate(677,377)"/>
      <path d="M0 0 C10.66846595 2.58767046 18.85679039 6.65905942 25.52734375 15.55859375 C29.26709533 21.75844717 30.44785029 26.6644865 30.25 33.75 C30.24484375 34.50410156 30.2396875 35.25820313 30.234375 36.03515625 C30.1884895 39.26434811 30.0269659 41.9191023 29 45 C20.11429751 44.9621885 13.84665048 42.26422038 7.1796875 36.3984375 C-0.9716086 27.75560595 -1.5071134 18.17833319 -1.23828125 6.87890625 C-1 3 -1 3 0 0 Z " fill="#ffffff" transform="translate(348,377)"/>
      <path d="M0 0 C5.41471511 0.86493261 7.91108366 4.76396932 11 9 C16.08578484 17.70176485 18.76068903 25.7459612 16.31640625 35.81640625 C14.21931302 42.07287943 11.29278468 47.00606049 7 52 C-0.17979334 48.74075171 -4.34111248 43.29110292 -7.2734375 36.11328125 C-10.58372466 26.48497291 -9.60687615 17.82710719 -5.37890625 8.6484375 C-3.77514154 5.56811887 -2.08250055 2.7766674 0 0 Z " fill="#ffffff" transform="translate(467,193)"/>
      <path d="M0 0 C3.7240272 1.2413424 4.11982648 2.36359057 6.0625 5.6875 C6.56910156 6.53699219 7.07570313 7.38648438 7.59765625 8.26171875 C11.58986929 16.05709853 12.15700311 24.40170857 11 33 C9.77460174 36.68530555 8.16094255 39.78477942 6 43 C5.34 43.99 4.68 44.98 4 46 C3.34 46 2.68 46 2 46 C1.773125 46.639375 1.54625 47.27875 1.3125 47.9375 C0 50 0 50 -2.625 50.75 C-3.40875 50.8325 -4.1925 50.915 -5 51 C-5.94700919 49.82006945 -6.88206299 48.63054211 -7.8125 47.4375 C-8.33457031 46.77621094 -8.85664062 46.11492187 -9.39453125 45.43359375 C-14.57849186 37.57566805 -15.41654115 29.14069952 -14 20 C-11.75796626 13.24400498 -8.46386611 7.57783377 -3 3 C-2.401875 2.401875 -1.80375 1.80375 -1.1875 1.1875 C-0.795625 0.795625 -0.40375 0.40375 0 0 Z " fill="#ffffff" transform="translate(555,193)"/>
      <path d="M0 0 C0.52741154 11.54445249 -1.00371139 21.15763106 -9 30 C-14.49613572 34.08357747 -19.73222677 37.16330106 -26.6875 37.0625 C-27.89986328 37.04896484 -27.89986328 37.04896484 -29.13671875 37.03515625 C-29.75160156 37.02355469 -30.36648438 37.01195312 -31 37 C-32.00777229 18.94967849 -32.00777229 18.94967849 -26 11 C-19.80791339 4.08650524 -9.32459688 -2.1783512 0 0 Z " fill="#ffffff" transform="translate(675,300)"/>
      <path d="M0 0 C9.92348005 1.23891673 18.36125058 4.21053401 25 12 C29.26113034 18.7838891 31.15898447 24.80428915 31.0625 32.8125 C31.05347656 33.78832031 31.04445313 34.76414062 31.03515625 35.76953125 C31.02355469 36.50558594 31.01195312 37.24164063 31 38 C22.38158489 38.54720096 16.26647633 36.66581099 9.3125 31.5 C3.68809391 26.21726344 0.03882962 19.4100834 -0.37109375 11.6640625 C-0.43340027 7.76152599 -0.26677355 3.89291778 0 0 Z " fill="#ffffff" transform="translate(350,299)"/>
      <path d="M0 0 C-2.23540455 8.47100671 -5.66030051 15.10846944 -13.1875 19.9375 C-18.20844678 22.85895819 -22.59044568 23.18263844 -28.3125 23.1875 C-29.05951172 23.19974609 -29.80652344 23.21199219 -30.57617188 23.22460938 C-35.11522437 23.23656474 -38.72499142 22.71951855 -43 21 C-42.1303622 13.52111489 -38.48146021 7.94445855 -32.74609375 3.09375 C-22.21734032 -4.17483105 -11.77597706 -4.88484974 0 0 Z " fill="#ffffff" transform="translate(207,493)"/>
      <path d="M0 0 C8.68987009 4.89521705 13.18734748 11.27598828 16.625 20.5 C11.40287513 23.67721513 7.18489847 24.0186632 1.25 24 C0.43789063 24.02835938 -0.37421875 24.05671875 -1.2109375 24.0859375 C-8.78459755 24.11021205 -13.24358096 21.22383751 -18.8359375 16.359375 C-23.53084071 11.18540004 -25.49167119 7.45621435 -26.375 0.5 C-17.92019136 -4.21896296 -8.73184304 -4.02081103 0 0 Z " fill="#ffffff" transform="translate(844.375,492.5)"/>
      <path d="M0 0 C5.24452539 4.64515106 9.22309082 9.80237129 10.5234375 16.828125 C11.00844221 25.65059163 7.86031967 32.93268011 2.55078125 39.90234375 C1 41 1 41 -0.98828125 40.96484375 C-3.69113323 39.66852445 -4.61284947 38.09246551 -6.1875 35.5625 C-6.95126953 34.35787109 -6.95126953 34.35787109 -7.73046875 33.12890625 C-10.97557761 27.68710832 -10.62431613 22.22211698 -10 16 C-7.95850415 9.7738612 -4.4024881 4.77984423 0 0 Z " fill="#ffffff" transform="translate(552,124)"/>
      <path d="M0 0 C6.02785422 4.65788735 10.13823001 9.39777254 12 17 C12.89104542 26.26687234 9.70446587 33.90796135 4 41 C1.38474375 40.62073124 0.22032464 40.2303394 -1.6328125 38.29296875 C-2.12523437 37.59816406 -2.61765625 36.90335938 -3.125 36.1875 C-3.62257813 35.50042969 -4.12015625 34.81335938 -4.6328125 34.10546875 C-8.84418447 27.61995591 -8.82419908 21.64856746 -8 14 C-6.2074562 8.70510139 -3.39477737 4.40026862 0 0 Z " fill="#ffffff" transform="translate(471,124)"/>
      <path d="M0 0 C6.67788426 2.91907516 12.79329753 9.69876646 15.51953125 16.41796875 C15.51953125 17.40796875 15.51953125 18.39796875 15.51953125 19.41796875 C9.25335465 22.20293613 1.81567057 22.63193705 -4.7890625 20.765625 C-12.76854481 17.14141568 -17.65534841 11.15122014 -20.8515625 3.140625 C-21.05910156 2.57214844 -21.26664063 2.00367188 -21.48046875 1.41796875 C-15.63712357 -2.27101179 -6.54728982 -1.5362932 0 0 Z " fill="#ffffff" transform="translate(188.48046875,351.58203125)"/>
      <path d="M0 0 C1.19625 0.00644531 2.3925 0.01289063 3.625 0.01953125 C6.54002689 0.16460782 9.16718061 0.51685147 12 1.1875 C10.1216534 8.51305176 6.29597017 15.05459943 -0.125 19.1875 C-5.8595846 22.50388628 -11.4974655 22.62713677 -18 22.1875 C-21.625 21.1875 -21.625 21.1875 -24 20.1875 C-23.27624932 12.58811789 -19.44025691 8.28442708 -13.87890625 3.484375 C-9.33986728 0.35140008 -5.45486682 -0.06465898 0 0 Z " fill="#ffffff" transform="translate(845,350.8125)"/>
      <path d="M0 0 C5.89963049 0.82963554 9.08938846 3.64786781 13 8 C16.26253679 12.8310641 18.8228411 17.84762522 18.44140625 23.83984375 C17.50875735 28.40404589 15.76896528 32.70394146 14 37 C8.11161006 36.18074575 4.9038094 33.3357549 1 29 C-3.19494966 22.78352864 -3.91393109 16.3429636 -3 9 C-2.21444705 5.89818808 -1.22549216 2.95431146 0 0 Z " fill="#ffffff" transform="translate(393,141)"/>
      <path d="M0 0 C2.85231484 0.95077161 3.83323272 1.68314218 5.25 4.375 C6.96053099 12.64256647 6.8564993 20.41998414 3 28 C-0.17909854 31.78054961 -3.74366841 34.50171842 -8 37 C-8.99 37 -9.98 37 -11 37 C-14.82589036 30.14527978 -15.26026958 22.46116818 -13.49609375 14.81640625 C-10.86561457 8.06734824 -6.01909974 3.63945566 0 0 Z " fill="#ffffff" transform="translate(628,141)"/>
      <path d="M0 0 C8.2214768 -0.59792559 14.27555588 1.67304927 20.8125 6.6875 C25.18269961 10.73247545 27.68869957 15.63183142 28.23828125 21.578125 C28.24838537 23.72019922 28.13573291 25.8622066 28 28 C20.39471258 28.40742611 15.22172454 27.08464529 8.8125 22.9375 C2.72508684 17.38231968 0.49772777 9.82494727 0.04296875 1.8359375 C0.02878906 1.23007813 0.01460938 0.62421875 0 0 Z " fill="#ffffff" transform="translate(281,204)"/>
      <path d="M0 0 C1.216875 0.04125 2.43375 0.0825 3.6875 0.125 C4.356804 8.42436954 2.56212137 14.54852414 -2.88671875 20.984375 C-7.98773319 25.78812752 -13.93175551 27.94706608 -20.875 28.3125 C-22.0815625 28.2196875 -22.0815625 28.2196875 -23.3125 28.125 C-24.04975589 20.42477179 -23.0115623 14.41935596 -18.3125 8.125 C-13.20184106 3.65201822 -6.97212364 -0.23634317 0 0 Z " fill="#ffffff" transform="translate(739.3125,203.875)"/>
      <path d="M0 0 C0.66 0.33 1.32 0.66 2 1 C1.67 1.99 1.34 2.98 1 4 C0.01 3.67 -0.98 3.34 -2 3 C-1.34 2.01 -0.68 1.02 0 0 Z M-4 3 C-3.34 3.33 -2.68 3.66 -2 4 C-5.57546908 9.08092974 -9.51841262 13.02428114 -15 16 C-13.46356148 12.31930113 -11.21849055 10.01224796 -8.375 7.25 C-7.55773437 6.45078125 -6.74046875 5.6515625 -5.8984375 4.828125 C-4.95871094 3.92320312 -4.95871094 3.92320312 -4 3 Z " fill="#cccccc" transform="translate(362,745)"/>
      <path d="M0 0 C1.32 0.33 2.64 0.66 4 1 C3.34 5.29 2.68 9.58 2 14 C1.34 14 0.68 14 0 14 C0 9.38 0 4.76 0 0 Z " fill="#cccccc" transform="translate(387,149)"/>
      <path d="M0 0 C0.66 0 1.32 0 2 0 C3.18306728 2.36613456 3.13354608 3.86780736 3.125 6.5 C3.12757813 7.2940625 3.13015625 8.088125 3.1328125 8.90625 C3 11 3 11 2 13 C1.34 13 0.68 13 0 13 C0 8.71 0 4.42 0 0 Z " fill="#cccccc" transform="translate(643,404)"/>
      <path d="M0 0 C4.75 1.875 4.75 1.875 7 3 C6.625 5.4375 6.625 5.4375 6 8 C5.01 8.495 5.01 8.495 4 9 C0 2.25 0 2.25 0 0 Z " fill="#cccccc" transform="translate(196,735)"/>
      <path d="M0 0 C0.66 0 1.32 0 2 0 C1.01 3.3 0.02 6.6 -1 10 C-1.99 9.67 -2.98 9.34 -4 9 C-2.80100302 5.9168649 -1.52299523 2.93720508 0 0 Z " fill="#cccccc" transform="translate(864,677)"/>
      <path d="M0 0 C1.98 0.66 3.96 1.32 6 2 C5.67 2.99 5.34 3.98 5 5 C4.01 5.33 3.02 5.66 2 6 C2 5.01 2 4.02 2 3 C1.01 3 0.02 3 -1 3 C-0.67 2.01 -0.34 1.02 0 0 Z " fill="#cccccc" transform="translate(318,441)"/>
      <path d="M0 0 C-0.99 0.33 -1.98 0.66 -3 1 C-3.33 1.66 -3.66 2.32 -4 3 C-4.66 3 -5.32 3 -6 3 C-6.33 4.32 -6.66 5.64 -7 7 C-7 4.69 -7 2.38 -7 0 C-3.86650268 -1.04449911 -3.01031744 -0.93423645 0 0 Z " fill="#cccccc" transform="translate(198,314)"/>
    </mask>
  </defs>
  <!-- Single masked rect — this is what paints. The gradient is in
       viewBox coordinates so every pixel of the silhouette samples
       the same gradient continuum. -->
  <rect
    width="1024" height="1024"
    fill="url(#ttc-tree)"
    mask="url(#ttc-tree-mask)"
  />
</svg>
